<?xml  version="1.0" encoding="UTF-8"?>
<!DOCTYPE svg PUBLIC "-//W3C//DTD SVG 1.0//EN" "http://www.w3.org/TR/2001/REC-SVG-20010904/DTD/svg10.dtd" >
<svg xmlns="http://www.w3.org/2000/svg" >
<metadata>
<version>1.0</version>
<id><![CDATA[Futura PT W01 Medium Oblique]]></id>
<vendor>Monotype Imaging Inc.</vendor>
<credits>
<name>Fonts.com WebFonts</name>
<URL>http://webfonts.fonts.com</URL>
<role>Home of the Web fonts</role>
</credits>
<license>
<URL>http://webfonts.fonts.com/Legal</URL>
</license>
<copyright></copyright>
<trademark></trademark>
<licensee>
<name></name>
</licensee>
</metadata>
<defs >
<font horiz-adv-x="525" id="870852b2-1fbd-44b8-bf52-1f6c79f4679b">
<font-face font-family="" panose-1="2 11 6 2 2 2 4 9 3 3" ascent="755" descent="-245" units-per-em="1000" alphabetic="0">
</font-face>
<missing-glyph horiz-adv-x="0" />

<glyph unicode="&#xA;" />
<glyph unicode="&#xD;" />
<glyph unicode=" " horiz-adv-x="233" />
<glyph unicode="!" horiz-adv-x="254" d="M72 42Q72 68 90 88Q98 96 110 102T139 108Q153 108 162 104T178 93Q194 78 194 53Q194 26 174 6Q156 -12 128 -12Q117 -12 107 -9T88 2Q72 17 72 42ZM99 165L161 667H259L197 165H99Z"  />
<glyph unicode="&quot;" horiz-adv-x="366" d="M349 399H277L292 667H400L349 399ZM187 399H115L130 667H238L187 399Z"  />
<glyph unicode="#" horiz-adv-x="600" d="M309 0L364 196H250L195 0H97L152 196H44L69 284H177L209 396H101L125 484H233L285 667H383L331 484H445L497 667H595L543 484H651L627 396H519L487 284H595L570 196H462L407 0H309ZM421 396H307L275 284H389L421 396Z"  />
<glyph unicode="$" horiz-adv-x="568" d="M458 519Q450 549 428 566Q410 579 389 582T361 585Q332 585 315 577T286 559Q274 548 266 533T258 499Q258 482 264 470T282 448Q298 434 313 428T347 413L401 389Q433 375 453 359T485 328Q505 303 512 277T520 219Q520 119 459 54Q424 17 388 5T325 -10L312 -110H238L251 -11Q216 -7 191 6T151 34Q126 58 109 97T89 184L192 206Q192 183 196 159T215 116Q227 101 245 91T292 81Q326 81 349 92T387 121Q401 137 409 159T417 208Q417 228 410 242T391 270Q377 285 359 294T323 312L272 335Q254 343 232 356T193 388Q177 406 167 431T156 486Q156 518 169 552T209 615Q228 635 259 653T335 677L345 765H419L409 676Q435 672 455 663T491 642Q512 627 525 609T546 567L458 519Z"  />
<glyph unicode="%" horiz-adv-x="810" d="M655 678L699 651L237 -11L193 18L655 678ZM644 307Q689 307 715 292T756 263Q773 246 784 220T796 161Q796 129 784 97T746 38Q720 12 691 3T627 -7Q597 -7 568 1T513 35Q491 57 481 84T471 139Q471 170 484 201T521 257Q569 307 644 307ZM629 65Q652 65 667 73T691 90Q704 103 711 122T718 159Q718 174 712 189T694 216Q673 235 641 235Q601 235 577 209Q565 197 558 180T551 142Q551 108 573 86Q582 77 595 71T629 65ZM268 673Q313 673 339 658T380 629Q397 611 408 585T420 527Q420 494 408 462T370 405Q343 379 313 369T250 359Q221 359 192 367T137 401Q115 423 105 450T95 505Q95 536 108 567T145 623Q193 673 268 673ZM253 431Q276 431 291 439T315 456Q328 469 335 488T342 525Q342 540 336 555T318 582Q297 601 265 601Q225 601 201 575Q189 563 182 546T175 508Q175 474 197 452Q206 443 219 437T253 431Z"  />
<glyph unicode="&amp;" horiz-adv-x="646" d="M632 245L542 154L646 0H522L466 82Q450 67 427 48T383 18Q356 3 324 -5T259 -13Q214 -13 180 1T124 37Q105 56 90 87T75 163Q75 207 90 242T134 306Q158 330 183 345T230 374L251 387L230 419Q217 439 209 462T200 516Q200 554 213 581T245 629Q265 650 297 664T377 679Q403 679 430 671T482 639Q499 623 510 598T522 538Q522 512 515 492T494 454Q478 433 462 421T425 395L389 371L489 227L575 313L632 245ZM302 314Q283 305 259 290T217 259Q192 235 184 211T175 165Q175 145 182 130T200 102Q213 88 229 81T267 73Q293 73 311 80T346 98Q384 122 414 154L302 314ZM374 465Q384 471 394 479T414 501Q427 520 427 542Q427 556 422 566T408 582Q400 589 389 592T368 595Q355 595 341 590T315 574Q308 567 303 556T297 527Q297 510 301 499T313 478L338 442L374 465Z"  />
<glyph unicode="&apos;" horiz-adv-x="204" d="M187 399H115L130 667H238L187 399Z"  />
<glyph unicode="(" horiz-adv-x="325" d="M152 -177Q125 -94 114 -16T102 127Q102 149 103 188T111 279T130 392T166 520Q185 575 209 629T265 740L351 705Q340 684 328 658T304 603T282 548T263 497Q242 435 230 380T212 280T205 201T203 148Q203 83 211 13T247 -142L152 -177Z"  />
<glyph unicode=")" horiz-adv-x="329" d="M240 740Q258 690 268 649T283 572T290 507T292 450Q292 410 290 366T281 271T261 164T226 40Q206 -19 184 -70T127 -177L42 -142Q72 -89 93 -39T131 63Q169 184 180 278T191 447Q191 477 189 505T182 563T169 627T146 705L240 740Z"  />
<glyph unicode="*" horiz-adv-x="550" d="M317 610L326 729H404L380 611L494 655L509 583L391 555L452 465L386 418L335 515L258 418L204 465L291 553L181 581L216 655L317 610Z"  />
<glyph unicode="+" horiz-adv-x="500" d="M75 381H245V551H339V381H509V291H339V121H245V291H75V381Z"  />
<glyph unicode="&#x2c;" horiz-adv-x="320" d="M127 125L211 91L57 -156L-6 -129L127 125Z"  />
<glyph unicode="-" horiz-adv-x="340" d="M82 264H322L310 162H70L82 264Z"  />
<glyph unicode="." horiz-adv-x="252" d="M71 42Q71 68 89 88Q97 96 109 102T138 108Q152 108 161 104T177 93Q193 78 193 53Q193 26 173 6Q155 -12 127 -12Q116 -12 106 -9T87 2Q71 17 71 42Z"  />
<glyph unicode="/" horiz-adv-x="687" d="M617 765L695 729L60 -213L-18 -177L617 765Z"  />
<glyph unicode="0" horiz-adv-x="568" d="M287 -11Q239 -11 207 4T147 51Q126 75 114 103T95 158T86 211T84 256Q84 295 89 342T108 437T146 530T206 611Q241 646 280 662T367 678Q402 678 433 667T491 629Q516 606 530 578T553 521T563 465T566 414Q566 283 534 197T448 57Q410 19 373 4T287 -11ZM356 588Q330 588 310 579T274 552Q253 531 237 498T209 426T191 345T185 264Q185 246 186 225T193 182T207 140T232 104Q246 90 260 85T293 80Q318 80 337 88T375 115Q400 140 417 176T444 251T460 330T465 401Q465 416 464 438T457 483T443 528T416 566Q402 578 388 583T356 588Z"  />
<glyph unicode="1" horiz-adv-x="568" d="M320 573H204L272 667H434L352 0H250L320 573Z"  />
<glyph unicode="2" horiz-adv-x="568" d="M482 0H34L299 280Q334 318 355 340T392 381Q411 404 425 431T440 491Q440 520 429 537T408 563Q398 571 380 579T331 588Q300 588 280 579T249 558Q233 542 222 517T208 467H110Q116 509 133 548T174 613Q193 634 214 647T256 666T298 675T337 678Q371 678 410 669T485 629Q508 609 524 578T541 502Q541 457 526 421T486 353Q475 339 458 320T423 281T389 244T364 217L245 94H494L482 0Z"  />
<glyph unicode="3" horiz-adv-x="568" d="M129 497Q135 531 150 564T187 620Q222 657 264 667T340 678Q352 678 369 677T404 670T442 655T479 629Q499 609 512 579T526 507Q526 448 499 407Q482 379 461 366T427 348Q443 340 457 329T482 299Q495 278 499 259T503 217Q503 154 484 113T440 48Q420 28 399 16T356 -2T314 -9T274 -11Q234 -11 196 -2T125 42Q102 66 87 102T70 181H168Q169 161 177 141T199 106Q216 89 237 84T277 79Q297 79 319 84T363 109Q367 113 373 121T386 141T396 171T401 211Q401 218 400 228T395 251T383 274T362 294Q357 298 340 304T291 310H278L289 396H310Q332 396 356 400T400 423Q414 437 421 458T428 499Q428 522 420 539T398 568Q382 582 364 585T332 588Q316 588 297 584T261 564Q259 562 246 545T227 497H129Z"  />
<glyph unicode="4" horiz-adv-x="568" d="M471 220H543L532 126H460L444 0H346L362 126H31L532 716L471 220ZM373 220L398 427L226 220H373Z"  />
<glyph unicode="5" horiz-adv-x="568" d="M545 573H339L292 458Q300 459 307 459T322 460Q363 460 398 446T460 406Q495 371 506 330T517 253Q517 180 495 132T445 57Q423 34 399 21T351 1T304 -9T260 -11Q222 -11 187 -4T120 24Q102 35 83 53T46 100L121 160Q130 143 144 128T176 101Q212 79 261 79Q307 79 333 93T372 119Q391 138 403 168T415 237Q415 279 402 305T373 344Q358 358 334 366T278 374Q249 374 216 366T139 330L281 667H557L545 573Z"  />
<glyph unicode="6" horiz-adv-x="568" d="M524 635L334 431Q341 432 347 432T361 433Q404 433 443 417T509 373Q529 353 546 318T563 231Q563 174 544 131T491 56Q454 21 411 5T313 -11Q266 -11 228 2T155 47Q120 81 105 122T89 204Q89 229 94 251T106 291T120 322T133 344Q152 374 178 403T233 462L450 690L524 635ZM339 351Q299 351 274 338T233 309Q192 266 192 204Q192 175 202 153T227 115Q239 102 261 91T317 79Q349 79 374 91T418 120Q437 139 450 166T463 231Q463 263 453 285T425 322Q411 335 390 343T339 351Z"  />
<glyph unicode="7" horiz-adv-x="568" d="M450 573H124L136 667H632L157 -23L81 27L450 573Z"  />
<glyph unicode="8" horiz-adv-x="568" d="M435 347Q460 335 474 321T495 296Q509 276 514 255T519 211Q519 159 502 116T455 45Q436 27 415 16T373 -1T332 -9T292 -11Q253 -11 218 -1T151 39Q119 70 107 106T95 182Q95 205 101 234T128 291Q142 310 164 327T219 355Q207 363 196 373T176 394Q161 414 156 435T150 480Q150 521 163 553T201 613Q233 648 271 663T358 678Q395 678 427 667T487 630Q515 604 527 572T539 501Q539 467 531 444T513 406Q501 388 481 372T435 347ZM336 387Q368 387 387 397T416 416Q432 432 439 453T446 497Q446 523 437 539T418 564Q405 576 387 582T352 588Q329 588 308 579T272 556Q258 542 250 522T242 479Q242 461 248 444T268 414Q283 398 301 393T336 387ZM297 79Q317 79 340 85T384 112Q398 126 407 149T417 203Q417 219 412 238T390 274Q378 287 360 295T315 303Q283 303 263 293T230 271Q208 250 202 226T196 184Q196 167 201 148T222 110Q239 92 257 86T297 79Z"  />
<glyph unicode="9" horiz-adv-x="568" d="M177 32L362 232Q347 229 331 229Q293 229 258 244T196 288Q173 311 155 347T137 435Q137 489 156 532T206 605Q240 638 287 658T390 678Q439 678 484 662T559 615Q585 589 598 551T612 474Q612 443 603 407T568 330Q552 305 529 277T469 210L251 -23L177 32ZM364 316Q394 316 420 326T465 353Q479 365 494 391T510 461Q510 493 500 516T473 554Q457 569 434 578T382 588Q356 588 331 580T284 551Q266 534 253 507T239 441Q239 405 251 383T275 350Q291 335 314 326T364 316Z"  />
<glyph unicode=":" horiz-adv-x="254" d="M112 366Q112 392 130 412Q138 420 150 426T179 432Q193 432 202 428T218 417Q234 402 234 377Q234 350 214 330Q196 312 168 312Q157 312 147 315T128 326Q112 341 112 366ZM72 41Q72 67 90 87Q98 95 110 101T139 107Q153 107 162 103T178 92Q194 77 194 52Q194 25 174 5Q156 -13 128 -13Q117 -13 107 -10T88 1Q72 16 72 41Z"  />
<glyph unicode=";" horiz-adv-x="321" d="M135 366Q135 392 153 412Q161 420 173 426T202 432Q216 432 225 428T241 417Q257 402 257 377Q257 350 237 330Q219 312 191 312Q180 312 170 315T151 326Q135 341 135 366ZM127 125L211 91L57 -156L-6 -129L127 125Z"  />
<glyph unicode="&lt;" horiz-adv-x="500" d="M521 176V80L87 291V373L521 584V488L191 332L521 176Z"  />
<glyph unicode="=" horiz-adv-x="500" d="M75 302H509V218H75V302ZM75 464H509V380H75V464Z"  />
<glyph unicode="&gt;" horiz-adv-x="500" d="M61 488V584L495 373V291L61 80V176L391 332L61 488Z"  />
<glyph unicode="?" horiz-adv-x="436" d="M164 41Q164 67 182 87Q190 95 202 101T231 107Q245 107 254 103T270 92Q286 77 286 52Q286 25 266 5Q248 -13 220 -13Q209 -13 199 -10T180 1Q164 16 164 41ZM117 485V494Q117 534 130 571T169 634Q186 651 216 665T296 679Q318 679 350 672T409 639Q432 616 439 590T447 541Q447 509 440 486T421 446Q405 423 379 405T330 378L309 369Q301 366 294 363T279 358Q271 355 263 353T247 346Q232 339 218 326T203 289Q203 270 214 259Q220 252 229 249T250 246Q274 246 289 261Q297 270 301 286T307 314H405Q404 284 393 253T360 199Q333 171 301 164T244 156Q217 156 191 162T141 191Q128 203 116 226T103 285Q103 317 114 342T142 384Q164 407 191 419T241 440Q269 450 291 458T328 481Q347 502 347 533Q347 546 343 556T333 573Q330 577 320 583T290 589Q255 589 237 565Q224 548 222 526T219 493V485H117Z"  />
<glyph unicode="@" horiz-adv-x="732" d="M544 491H612L545 278Q540 264 538 256T536 239Q536 225 544 215Q553 205 568 205Q596 205 621 227Q637 241 648 261T667 305T678 351T682 396Q682 455 663 493T621 554Q591 583 548 600T450 617Q383 617 325 592T225 522Q184 479 160 417T136 291Q136 239 153 194T202 118Q227 92 273 70T390 48Q434 48 489 57T598 89L607 27Q582 17 527 3T389 -12Q359 -12 329 -9T269 4T212 28T157 69Q110 114 91 166T72 280Q72 376 104 448T185 570Q233 618 298 647T452 677Q530 677 584 654T670 599Q679 590 692 574T717 533T738 477T747 402Q747 384 745 359T734 305T712 250T674 198Q645 170 616 159T561 148Q546 148 532 152T505 168Q499 174 493 184T485 210Q480 201 469 188T440 164Q427 156 407 149T361 142Q326 142 304 153T269 177Q250 196 240 224T229 286Q229 328 245 372T295 450Q320 475 351 489T424 503Q442 503 459 499T494 482Q507 473 515 462T528 439L544 491ZM379 212Q399 212 416 218T449 239Q472 261 484 294T497 355Q497 375 491 389T476 414Q469 422 457 427T426 433Q409 433 389 426T348 398Q330 378 319 350T307 290Q307 267 314 252T330 229Q341 218 354 215T379 212Z"  />
<glyph unicode="A" horiz-adv-x="656" d="M494 161H209L116 0H4L423 706L652 0H544L494 161ZM465 257L393 483L263 257H465Z"  />
<glyph unicode="B" horiz-adv-x="526" d="M263 667Q319 667 362 657T437 615Q461 590 470 562T479 502Q479 483 476 461T460 415Q453 402 439 386T401 357Q433 346 451 329T474 305Q491 282 497 259T503 213Q503 159 487 124T450 67Q427 43 400 30T345 10T288 2T236 0H179H80L162 667H263ZM229 380H260Q296 380 317 388T350 407Q364 420 373 441T383 488Q383 509 376 523T361 546Q344 563 321 567T280 571H252L229 380ZM194 96H256Q285 96 317 101T373 130Q387 143 395 163T404 207Q404 232 395 247T374 272Q354 288 330 292T282 296H218L194 96Z"  />
<glyph unicode="C" horiz-adv-x="622" d="M639 511Q615 535 590 549T541 572T494 582T456 585Q403 585 357 568T275 517Q238 482 215 426T191 301Q191 247 208 209T249 144Q278 113 316 97T406 81Q439 81 468 89T521 108T563 133T595 158L581 37Q520 4 476 -4T397 -13Q367 -13 339 -10T283 3T229 29T178 70Q134 114 112 170T89 301Q89 394 120 461T199 577Q254 631 320 655T463 679Q509 679 554 668T653 631L639 511Z"  />
<glyph unicode="D" horiz-adv-x="646" d="M302 667Q330 667 362 665T429 654T496 629T558 584Q585 559 601 532T625 476T636 420T639 366Q639 333 635 299T621 232T592 167T545 106Q509 70 467 49T380 17T290 3T204 0H182H80L162 667H302ZM194 96H238Q263 96 294 98T359 108T423 133T481 181Q488 189 497 203T516 238T531 287T537 352Q537 407 522 447T482 512Q461 533 436 545T386 562T338 569T296 571H252L194 96Z"  />
<glyph unicode="E" horiz-adv-x="500" d="M518 571H252L232 402H490L478 306H220L194 96H460L448 0H80L162 667H530L518 571Z"  />
<glyph unicode="F" horiz-adv-x="450" d="M484 571H252L232 402H456L444 306H220L182 0H80L162 667H496L484 571Z"  />
<glyph unicode="G" horiz-adv-x="751" d="M471 347H746Q744 321 738 287T720 216T687 141T636 74Q609 47 580 31T520 4T459 -9T398 -13Q338 -13 282 5T176 76Q161 91 146 112T118 161T97 223T89 298Q89 378 119 450T202 574Q254 625 322 652T475 679Q520 679 559 670T637 638Q668 619 695 594T742 541L660 480Q646 500 627 519T587 551Q558 569 528 577T465 585Q398 585 351 563T274 510Q231 468 212 415T192 308Q192 258 209 214T255 141Q264 132 278 122T311 102T354 87T410 81Q452 81 489 93T558 134Q575 149 595 177T625 253H459L471 347Z"  />
<glyph unicode="H" horiz-adv-x="650" d="M232 403H518L550 667H652L570 0H468L506 307H220L182 0H80L162 667H264L232 403Z"  />
<glyph unicode="I" horiz-adv-x="262" d="M264 667L182 0H80L162 667H264Z"  />
<glyph unicode="J" horiz-adv-x="359" d="M361 667L308 235Q305 207 301 179T290 124T270 75T238 32Q222 16 205 7T170 -6T136 -12T106 -13Q77 -13 47 -7T-15 23L42 107Q56 93 73 88T106 83Q123 83 138 89T165 105Q183 122 191 155T206 235L259 667H361Z"  />
<glyph unicode="K" horiz-adv-x="586" d="M231 409L519 667H656L316 365L574 0H440L238 296L216 276L182 0H80L162 667H264L231 409Z"  />
<glyph unicode="L" horiz-adv-x="394" d="M264 667L194 96H390L378 0H181H80L162 667H264Z"  />
<glyph unicode="M" horiz-adv-x="852" d="M60 0L288 717L456 199L754 717L792 0H690L671 402L424 -31L285 403L166 0H60Z"  />
<glyph unicode="N" horiz-adv-x="746" d="M80 0L167 712L589 205L646 667H748L661 -41L239 466L182 0H80Z"  />
<glyph unicode="O" horiz-adv-x="796" d="M478 679Q521 679 556 671T619 650T667 622T703 592Q731 564 748 533T774 472T786 415T789 366Q789 315 780 273T755 196T722 136T684 90Q651 57 616 37T545 5T475 -9T409 -13Q340 -13 283 5T178 73Q138 114 114 172T89 300Q89 380 118 452T198 574Q248 624 320 651T478 679ZM410 81Q476 81 524 100T606 153Q644 191 665 246T687 360Q687 419 668 457T627 517Q599 546 557 565T458 585Q410 585 363 569T273 511Q238 477 214 426T190 307Q190 276 196 251T211 205T231 170T252 145Q287 107 327 94T410 81Z"  />
<glyph unicode="P" horiz-adv-x="481" d="M305 667Q316 667 335 666T376 660T422 645T466 615Q484 598 499 567T515 485Q515 428 497 392T458 335Q420 297 368 284T249 271H215L182 0H80L162 667H305ZM227 365H265Q301 365 332 371T383 396Q398 409 407 430T417 479Q417 505 408 522T386 550Q376 558 364 562T339 569T315 572T295 573H252L227 365Z"  />
<glyph unicode="Q" horiz-adv-x="796" d="M592 35Q566 18 521 3T399 -13Q342 -13 285 3T179 67Q165 80 150 100T121 149T98 215T89 299Q89 387 117 455T190 570Q247 630 314 654T457 679Q487 679 518 676T581 663T642 636T699 593Q741 552 765 497T789 369Q789 328 780 285T753 204Q738 173 716 144T665 91L756 -13H633L592 35ZM603 162Q617 174 632 192T661 236Q673 261 680 290T687 353Q687 412 667 456T619 526Q593 551 552 568T458 585Q389 585 343 561T268 507Q230 466 211 412T191 300Q191 240 211 202T251 143Q286 107 326 94T406 81Q436 81 465 86T527 106L387 264H511L603 162Z"  />
<glyph unicode="R" horiz-adv-x="534" d="M281 667Q300 667 322 666T366 661T410 648T449 626Q473 608 493 573T513 485Q513 434 496 398T455 341Q433 321 403 306T341 285L514 0H391L234 273H216L182 0H80L162 667H281ZM226 361H258Q285 361 318 367T374 393Q391 407 403 429T415 479Q415 505 405 524T378 554Q364 563 342 568T287 573H252L226 361Z"  />
<glyph unicode="S" horiz-adv-x="516" d="M432 519Q424 549 402 566Q388 577 370 581T336 585Q307 585 289 577T260 559Q248 548 240 533T232 499Q232 482 238 470T256 448Q272 434 287 428T321 413L375 389Q407 375 427 359T459 328Q479 303 486 277T494 219Q494 161 477 121T433 54Q413 33 391 20T346 0T301 -10T259 -13Q220 -13 187 -3T125 34Q100 58 83 97T63 184L166 206Q165 186 170 160T189 116Q201 100 221 91T274 81Q301 81 320 89T353 109Q373 126 382 153T391 207Q391 227 384 242T365 270Q351 285 333 294T297 312L246 335Q228 343 206 356T167 388Q151 406 141 431T130 486Q130 489 131 502T137 533T152 572T183 615Q210 644 249 661T342 679Q367 679 397 674T457 648Q484 630 498 609T520 567L432 519Z"  />
<glyph unicode="T" horiz-adv-x="428" d="M335 571L265 0H163L233 571H80L92 667H500L488 571H335Z"  />
<glyph unicode="U" horiz-adv-x="656" d="M266 667L220 292Q218 277 216 258T213 216Q213 192 219 166T248 117Q262 103 284 92T342 81Q383 81 409 94T453 124Q469 140 478 156T493 191T502 227T507 265L556 667H658L605 238Q600 201 591 171T568 116T540 74T511 44Q485 22 441 5T334 -13Q278 -13 233 4T153 65Q137 85 123 118T109 202Q109 209 109 217T111 238T114 269T120 313L164 667H266Z"  />
<glyph unicode="V" horiz-adv-x="600" d="M194 667L323 202L566 667H678L295 -43L86 667H194Z"  />
<glyph unicode="W" horiz-adv-x="940" d="M194 667L315 221L554 699L669 221L906 667H1018L633 -43L517 430L283 -43L86 667H194Z"  />
<glyph unicode="X" horiz-adv-x="540" d="M263 348L118 667H226L328 441L489 667H603L372 348L530 0H422L307 255L124 0H10L263 348Z"  />
<glyph unicode="Y" horiz-adv-x="540" d="M254 288L82 667H196L317 400L504 667H622L356 288L321 0H219L254 288Z"  />
<glyph unicode="Z" horiz-adv-x="554" d="M208 96H528L516 0H30L428 571H154L166 667H606L208 96Z"  />
<glyph unicode="[" horiz-adv-x="316" d="M264 639L175 -87H259L248 -177H163H66L178 729H360L348 639H264Z"  />
<glyph unicode="\" horiz-adv-x="671" d="M574 -213L164 729L242 765L653 -177L574 -213Z"  />
<glyph unicode="]" horiz-adv-x="316" d="M119 -87L208 639H124L136 729H318L206 -177H104H24L35 -87H119Z"  />
<glyph unicode="^" horiz-adv-x="500" d="M163 350H59L230 667H356L527 350H423L293 590L163 350Z"  />
<glyph unicode="_" horiz-adv-x="400" d="M0 -58H400V-144H0V-58Z"  />
<glyph unicode="`" horiz-adv-x="500" d="M162 629L258 675L359 519L301 485L162 629Z"  />
<glyph unicode="a" horiz-adv-x="532" d="M424 421H522L470 0H372L377 44Q366 33 352 21T321 2Q305 -5 285 -9T244 -13Q197 -13 169 2T124 33Q99 57 83 97T66 185Q66 233 83 284T139 373Q171 405 209 418T293 432Q314 432 333 428T370 414Q383 407 395 397T418 372L424 421ZM298 344Q268 344 248 334T214 311Q194 291 181 260T167 193Q167 165 176 143T200 105Q228 75 271 75Q304 75 326 86T363 112Q384 134 395 165T406 227Q406 253 398 276T373 316Q362 327 344 335T298 344Z"  />
<glyph unicode="b" horiz-adv-x="532" d="M206 372Q216 385 229 396T255 414Q273 424 295 428T340 432Q366 432 400 424T465 384Q486 363 502 328T518 240Q518 180 499 132T449 51Q415 15 376 1T291 -13Q269 -13 249 -9T208 7Q183 21 165 44L160 0H62L152 729H250L206 372ZM314 344Q288 344 265 336T222 306Q202 284 191 254T179 191Q179 163 188 141T213 103Q226 90 244 83T285 75Q308 75 331 83T374 113Q394 134 406 164T418 226Q418 258 409 280T385 316Q357 344 314 344Z"  />
<glyph unicode="c" horiz-adv-x="422" d="M426 290Q418 298 406 308T376 328Q360 336 346 340T314 344Q279 344 252 332T207 302Q167 260 167 198Q167 168 177 144T203 106Q219 91 242 83T290 75Q298 75 316 77T358 90Q363 93 377 101T406 126L393 16Q373 3 345 -5T268 -13Q226 -13 191 -1T125 41Q105 60 86 97T66 194Q66 226 72 252T89 300T111 338T136 367Q174 404 217 418T308 432Q353 432 384 422T439 396L426 290Z"  />
<glyph unicode="d" horiz-adv-x="532" d="M462 729H560L470 0H372L377 44Q363 28 350 18T323 2Q305 -7 288 -10T251 -13Q213 -13 183 -2T126 35Q98 63 82 104T66 193Q66 244 86 295T143 380Q170 405 205 418T287 432Q307 432 328 428T368 415Q396 402 418 372L462 729ZM296 344Q272 344 251 337T211 311Q188 288 177 258T166 197Q166 168 174 145T198 106Q214 89 233 82T274 75Q300 75 322 83T362 109Q382 129 393 161T405 225Q405 256 395 277T373 312Q342 344 296 344Z"  />
<glyph unicode="e" horiz-adv-x="489" d="M454 96Q438 70 418 50T376 17Q358 6 329 -3T258 -13Q219 -13 186 -1T123 40Q98 65 82 102T66 190Q66 244 85 290T139 370Q170 400 207 416T293 432Q322 432 356 423T420 383Q444 358 458 320T472 236Q472 226 471 214T467 187H166Q166 164 174 141T197 102Q207 91 224 83T266 75Q303 75 333 94Q346 102 357 115T377 142L454 96ZM377 267Q375 283 368 299T352 325Q341 336 325 342T291 348Q251 348 220 323Q207 312 197 297T181 267H377Z"  />
<glyph unicode="f" horiz-adv-x="263" d="M204 331L163 0H65L106 331H64L75 421H117L137 582Q140 607 148 640T184 700Q202 718 228 729T291 740Q326 740 358 726L346 630Q339 635 327 640T297 646Q280 646 269 639T250 621T239 596T233 567L215 421H321L310 331H204Z"  />
<glyph unicode="g" horiz-adv-x="529" d="M421 421H519L468 11Q466 -8 462 -31T452 -79T434 -127T406 -169Q386 -191 347 -210T244 -230Q212 -230 180 -222T120 -190Q86 -161 72 -122T56 -47H151Q152 -64 158 -84T178 -118Q194 -134 213 -138T249 -142Q266 -142 287 -137T328 -113Q348 -93 356 -65T368 -7L375 47Q361 27 345 15T312 -3T280 -11T253 -13Q219 -13 185 -1T120 41Q94 67 78 103T62 191Q62 242 81 290T137 374Q169 406 205 419T291 432Q301 432 316 431T347 424T381 407T415 375L421 421ZM297 344Q268 344 244 334T204 307Q184 287 174 256T164 196Q164 164 174 143T195 109Q209 95 228 85T272 75Q295 75 316 83T357 111Q374 128 388 156T402 228Q402 250 396 272T370 314Q358 326 340 335T297 344Z"  />
<glyph unicode="h" horiz-adv-x="486" d="M152 729H250L207 385Q213 392 223 400T249 416Q267 425 285 428T321 432Q359 432 383 421T421 396Q438 379 448 353T459 294Q459 283 457 265T450 207L424 0H326L353 217Q357 245 357 257T358 273Q358 286 355 301T339 327Q329 336 316 340T289 344Q263 344 248 336T226 321Q206 302 198 272T185 203L160 0H62L152 729Z"  />
<glyph unicode="i" horiz-adv-x="223" d="M120 585Q120 616 141 637Q150 646 163 652T192 658Q217 658 232 643Q239 636 243 627T248 605Q248 593 243 579T228 554Q219 544 205 538T175 532Q161 532 152 536T136 547Q129 553 125 563T120 585ZM212 421L160 0H62L114 421H212Z"  />
<glyph unicode="j" horiz-adv-x="223" d="M120 585Q120 616 141 637Q150 646 163 652T192 658Q217 658 232 643Q239 636 243 627T248 605Q248 593 243 579T228 554Q219 544 205 538T175 532Q161 532 152 536T136 547Q129 553 125 563T120 585ZM212 421L132 -229H34L114 421H212Z"  />
<glyph unicode="k" horiz-adv-x="442" d="M250 729L194 280L349 421H479L274 245L438 0H316L200 180L180 162L160 0H62L152 729H250Z"  />
<glyph unicode="l" horiz-adv-x="222" d="M250 729L160 0H62L152 729H250Z"  />
<glyph unicode="m" horiz-adv-x="702" d="M114 421H212L207 382Q215 391 225 400T248 416Q265 425 282 428T317 432Q334 432 348 429T377 416Q393 406 402 394T418 370Q426 381 437 392T466 414Q483 424 499 428T537 432Q571 432 595 423T636 398Q649 386 656 372T668 345T673 319T674 297Q674 280 672 260T666 212L640 0H542L568 212Q570 226 572 241T574 271Q574 288 570 303T557 327Q550 335 538 339T514 344Q504 344 493 341T468 326Q448 308 440 281T427 217L400 0H302L329 221Q332 244 333 255T334 274Q334 284 332 300T317 328Q310 335 300 339T275 344Q244 344 223 323Q205 305 198 277T187 217L160 0H62L114 421Z"  />
<glyph unicode="n" horiz-adv-x="485" d="M113 421H211L206 383Q216 395 226 402T248 416Q267 425 284 428T320 432Q358 432 382 421T420 396Q437 379 447 354T458 296Q458 284 456 266T449 207L423 0H325L352 217Q356 245 356 257T357 273Q357 286 354 301T338 327Q328 336 315 340T288 344Q262 344 247 336T225 321Q205 302 197 272T184 203L159 0H61L113 421Z"  />
<glyph unicode="o" horiz-adv-x="534" d="M313 432Q346 432 386 422T463 376Q483 355 501 319T520 230Q520 212 518 191T507 146T485 98T447 52Q409 15 367 1T274 -13Q233 -13 196 -2T124 44Q101 68 84 104T66 191Q66 246 86 290T139 367Q207 432 313 432ZM287 75Q313 75 336 84T380 115Q398 135 409 162T420 224Q420 241 414 265T387 312Q356 344 307 344Q273 344 250 334T212 309Q190 289 178 260T166 199Q166 175 174 152T197 112Q201 108 208 102T226 89T252 79T287 75Z"  />
<glyph unicode="p" horiz-adv-x="532" d="M132 -229H34L114 421H212L206 375Q217 389 229 398T256 415Q291 432 331 432Q371 432 406 417T465 378Q488 354 503 318T518 235Q518 180 498 130T447 47Q420 18 386 2T307 -14Q281 -14 257 -9T212 9Q198 17 187 27T166 49L132 -229ZM308 344Q285 344 265 338T224 313Q202 292 190 259T178 191Q178 173 183 150T206 108Q220 94 240 85T286 75Q312 75 332 83T369 109Q389 129 403 160T417 227Q417 253 409 275T387 312Q371 329 352 336T308 344Z"  />
<glyph unicode="q" horiz-adv-x="532" d="M424 421H522L442 -229H344L378 47Q370 36 358 25T329 4Q296 -13 256 -13Q213 -13 182 -2T125 34Q97 60 82 96T66 180Q66 206 71 233T85 285T108 332T140 373Q173 406 212 419T294 432Q316 432 332 428T367 416Q384 408 395 400T418 375L424 421ZM297 344Q272 344 252 337T213 311Q190 287 179 254T167 187Q167 166 173 144T199 103Q209 93 227 84T273 75Q301 75 323 84T359 108Q380 128 393 162T406 227Q406 250 398 274T374 314Q365 323 347 333T297 344Z"  />
<glyph unicode="r" horiz-adv-x="332" d="M114 421H212L207 383Q211 388 222 399T252 419Q269 427 285 429T316 432Q331 432 349 429T388 412L340 323Q317 338 288 338Q265 338 250 331T223 313Q214 303 208 290T197 264T191 238T187 218L160 0H62L114 421Z"  />
<glyph unicode="s" horiz-adv-x="364" d="M278 310Q271 326 258 336Q250 342 243 344T228 346Q220 346 211 344T194 334Q191 331 188 326T185 312Q185 297 197 288Q202 283 210 280T238 266L266 252Q292 239 304 229T319 216Q329 205 340 185T351 129Q351 91 338 67T309 27Q289 8 260 -2T191 -13Q172 -13 146 -8T97 14Q95 15 89 20T75 35T59 59T45 91L130 129Q137 103 153 88Q170 73 194 73Q218 73 233 86Q249 99 249 123Q249 144 235 158Q227 166 217 171T195 182L168 196Q158 201 144 209T120 228Q91 255 91 301Q91 330 101 353T129 394Q152 417 179 424T233 432Q253 432 271 428T306 412Q321 402 333 388T354 358L278 310Z"  />
<glyph unicode="t" horiz-adv-x="242" d="M204 331L163 0H65L106 331H65L76 421H117L136 575H234L215 421H290L279 331H204Z"  />
<glyph unicode="u" horiz-adv-x="485" d="M213 421L186 202Q184 185 183 174T181 153Q181 130 187 117T201 95Q211 85 226 80T256 75Q273 75 289 81T317 97Q334 113 339 135T347 180L377 421H475L445 177Q443 161 440 142T431 104T415 67T388 32Q371 15 339 1T255 -13Q207 -13 174 0T121 33Q82 74 82 135Q82 146 83 159T87 192L115 421H213Z"  />
<glyph unicode="v" horiz-adv-x="448" d="M166 421L244 181L382 421H494L220 -30L58 421H166Z"  />
<glyph unicode="w" horiz-adv-x="686" d="M166 421L245 180L397 457L481 180L620 421H732L457 -30L372 239L221 -30L58 421H166Z"  />
<glyph unicode="x" horiz-adv-x="496" d="M220 228L94 421H208L286 298L395 421H517L338 228L490 0H374L272 157L128 0H6L220 228Z"  />
<glyph unicode="y" horiz-adv-x="482" d="M203 78L58 421H174L269 184L416 421H528L113 -229H3L203 78Z"  />
<glyph unicode="z" horiz-adv-x="480" d="M212 90H462L451 0H8L322 331H107L118 421H524L212 90Z"  />
<glyph unicode="{" horiz-adv-x="502" d="M333 397Q330 374 325 353T309 316Q300 302 286 292T256 276Q264 273 272 268T288 252Q301 235 304 212T303 155L283 -13Q281 -30 281 -50T299 -83Q310 -91 327 -92T361 -93H369L359 -177H312Q290 -177 264 -174T217 -156Q191 -137 184 -108T182 -38L205 153Q207 168 206 189T193 222Q187 229 178 232T159 236L169 316Q186 318 197 324T215 338Q228 352 230 368T235 399L258 590Q261 617 269 645T301 695Q329 720 361 724T422 729H469L459 645H445Q429 645 411 644T378 631Q364 619 360 601T353 565L333 397Z"  />
<glyph unicode="|" horiz-adv-x="377" d="M171 750H267V-250H171V750Z"  />
<glyph unicode="}" horiz-adv-x="503" d="M248 155Q250 172 255 194T273 236Q281 247 294 258T325 276Q311 283 303 291T289 307Q275 327 275 348T278 397L298 565Q300 585 300 604T283 635Q279 637 267 641T220 645H212L222 729H269Q292 729 320 725T365 710Q379 701 387 688T398 658T402 625T399 590L376 399Q374 382 374 364T389 332Q402 319 422 316L412 236Q384 233 369 216Q357 203 353 185T346 153L322 -38Q319 -65 312 -92T283 -140Q271 -153 256 -160T226 -171T196 -176T169 -177H111L121 -93H135Q148 -93 169 -91T204 -76Q218 -63 221 -45T227 -13L248 155Z"  />
<glyph unicode="~" horiz-adv-x="500" d="M530 328Q513 293 493 273T460 241Q443 227 421 217T370 207Q341 207 316 216T269 234Q262 237 252 242T229 252T202 261T175 265Q157 265 144 259T121 243Q99 223 86 198L35 234Q43 250 58 273T95 317Q109 331 132 345T194 359Q224 359 247 350T293 330Q327 314 348 307T389 300Q418 300 440 318Q451 326 461 338T477 361L530 328Z"  />
<glyph unicode="&#xA0;" horiz-adv-x="233" />
<glyph unicode="&#xA1;" horiz-adv-x="254" d="M123 383Q123 409 141 429Q149 437 161 443T190 449Q204 449 213 445T229 434Q245 419 245 394Q245 367 225 347Q207 329 179 329Q168 329 158 332T139 343Q123 358 123 383ZM218 272L156 -230H58L120 272H218Z"  />
<glyph unicode="&#xA2;" horiz-adv-x="568" d="M490 417Q471 437 442 453T373 469Q337 469 313 459T275 434Q253 413 242 383T231 323Q231 291 241 268T267 230Q282 216 304 208T350 200Q379 200 410 211T469 249L456 143Q411 116 358 114L346 13H272L284 115Q263 119 237 130T184 168Q130 224 130 313Q130 370 150 416T200 492Q220 512 254 531T337 555L350 655H424L411 554Q460 551 503 524L490 417Z"  />
<glyph unicode="&#xA3;" horiz-adv-x="568" d="M473 444Q474 449 474 458T475 476Q475 492 470 512T447 551Q430 568 408 576T362 584Q335 584 313 575T276 551Q259 534 250 511T241 461Q241 441 248 411T275 330H405L396 258H295Q298 245 299 235T300 217Q300 185 291 161T277 128L316 113Q338 105 359 97T403 89Q429 89 448 108Q455 116 464 128T478 152L554 104Q541 80 523 58T487 22Q465 5 442 -2T392 -9Q363 -9 341 -3T297 11L258 26Q240 33 225 38T194 44Q162 44 140 22Q132 14 126 5T114 -15L33 29Q42 46 57 67T89 102Q113 123 136 129T175 138Q185 155 192 177T199 217Q199 225 197 235T190 258H76L85 330H163Q152 359 145 391T138 455Q138 508 155 548T203 618Q240 654 280 666T368 678Q406 678 445 669T519 627Q536 610 546 592T563 555T571 518T573 485Q573 472 572 462T570 444H473Z"  />
<glyph unicode="&#xA4;" horiz-adv-x="667" d="M236 561Q256 577 290 593T379 609Q433 609 467 593T522 561L621 660L675 606L576 507Q589 490 605 456T621 367Q621 312 605 278T576 227L675 128L621 74L522 173Q502 157 468 141T379 125Q325 125 291 141T236 173L137 74L83 128L182 227Q169 244 153 278T137 367Q137 422 153 456T182 507L83 606L137 660L236 561ZM379 211Q444 211 488 256Q512 281 521 308T531 367Q531 397 522 425T487 479Q463 503 436 513T379 523Q345 523 319 512T271 479Q247 455 237 427T227 367Q227 332 238 305T270 256Q287 239 313 225T379 211Z"  />
<glyph unicode="&#xA5;" horiz-adv-x="568" d="M426 377L376 303H560L552 233H360L331 0H237L266 233H74L82 303H266L234 377H91L100 447H204L110 667H218L331 400L510 667H622L474 447H578L569 377H426Z"  />
<glyph unicode="&#xA6;" horiz-adv-x="377" d="M171 110H267V-250H171V110ZM171 750H267V390H171V750Z"  />
<glyph unicode="&#xA7;" horiz-adv-x="567" d="M454 525Q456 533 456 539T456 552Q456 578 449 594T432 620Q417 634 399 638T366 643Q347 643 329 638T296 618Q285 607 278 592T271 557Q271 534 280 518T301 492Q312 483 329 476T382 455Q410 444 434 431T479 395Q502 369 510 342T518 286Q518 258 511 233T483 182Q466 160 447 148T410 128Q428 113 439 96T455 63T462 32T464 8Q464 -41 447 -72T412 -122Q378 -156 340 -166T267 -177Q255 -177 240 -176T207 -170T172 -156T139 -132Q113 -106 99 -67T85 14V18H179V13Q179 -20 187 -39T205 -67Q215 -77 232 -84T273 -91Q298 -91 313 -84T336 -70Q348 -59 356 -41T364 -3Q364 15 357 28T339 53Q323 69 304 77T266 94L248 102Q229 110 205 121T160 156Q145 172 133 197T120 260Q120 287 127 315T151 366Q167 388 189 404T234 429Q214 444 202 460T184 491T177 521T175 545Q175 590 190 622T226 675Q250 699 284 714T367 729Q422 729 456 713T507 680Q527 660 538 631T550 561Q550 553 550 544T548 525H454ZM324 377Q297 377 280 368T251 347Q239 334 231 315T222 269Q222 256 226 238T246 205Q257 194 272 188T310 181Q331 181 350 187T387 210Q404 227 410 248T416 290Q416 310 411 325T389 355Q378 365 362 371T324 377Z"  />
<glyph unicode="&#xA8;" horiz-adv-x="500" d="M164 561Q164 573 169 585T185 609Q196 621 210 626T236 631Q257 631 274 616Q282 608 286 598T290 577Q290 552 270 529Q261 519 250 513T223 507Q198 507 180 523Q173 529 169 538T164 561ZM344 561Q344 573 349 585T365 609Q376 621 390 626T416 631Q437 631 454 616Q462 608 466 598T470 577Q470 552 450 529Q441 519 430 513T403 507Q378 507 360 523Q353 529 349 538T344 561Z"  />
<glyph unicode="&#xA9;" horiz-adv-x="751" d="M761 333Q761 255 734 192T663 84Q621 42 559 14T415 -14Q334 -14 272 14T167 84Q123 128 96 191T69 333Q69 411 96 474T167 582Q209 624 271 652T415 680Q496 680 558 652T663 582Q707 538 734 475T761 333ZM415 630Q344 630 293 604T209 546Q170 507 148 455T125 333Q125 264 147 212T209 120Q241 88 292 62T415 36Q486 36 537 62T621 120Q660 159 682 211T705 333Q705 402 683 454T621 546Q589 578 538 604T415 630ZM548 423Q523 447 493 460T431 473Q404 473 378 464T330 433Q314 417 303 392T291 331Q291 310 298 284T328 235Q347 216 374 205T434 194Q473 194 502 210T548 245V157Q528 146 498 136T427 126Q371 126 334 145T272 188Q252 209 234 244T215 333Q215 380 231 416T271 477Q293 500 332 520T432 541Q464 541 492 534T548 510V423Z"  />
<glyph unicode="&#xAA;" horiz-adv-x="368" d="M357 343L351 291H84L90 343H357ZM249 610Q237 610 223 605T195 587Q181 573 174 554T167 514Q167 496 173 483T187 461Q205 443 235 443Q255 443 268 450T290 465Q304 479 311 499T318 538Q318 572 300 590Q291 600 277 605T249 610ZM330 661H395L363 394H297L300 419Q283 402 262 395T221 387Q198 387 175 395T133 423Q116 441 108 463T100 510Q100 533 105 551T117 584T131 608T145 624Q169 648 196 657T248 667Q264 667 286 661T327 632L330 661Z"  />
<glyph unicode="&#xAB;" horiz-adv-x="512" d="M459 50L388 7L253 219L446 435L505 384L353 215L459 50ZM273 50L202 7L67 219L260 435L319 384L167 215L273 50Z"  />
<glyph unicode="&#xAC;" horiz-adv-x="500" d="M380 0V179H44V267H478V0H380Z"  />
<glyph unicode="&#xAD;" horiz-adv-x="340" d="M82 264H322L310 162H70L82 264Z"  />
<glyph unicode="&#xAE;" horiz-adv-x="758" d="M766 333Q766 255 739 192T668 84Q626 42 564 14T420 -14Q339 -14 277 14T172 84Q128 128 101 191T74 333Q74 411 101 474T172 582Q214 624 276 652T420 680Q501 680 563 652T668 582Q712 538 739 475T766 333ZM420 630Q349 630 298 604T214 546Q175 507 153 455T130 333Q130 264 152 212T214 120Q246 88 297 62T420 36Q491 36 542 62T626 120Q665 159 687 211T710 333Q710 402 688 454T626 546Q594 578 543 604T420 630ZM386 360H400Q414 360 431 362T460 375Q466 380 472 390T478 416Q478 433 471 442T459 455Q452 460 441 462T410 464H386V360ZM502 153L386 301V153H315V527H425Q432 527 444 526T469 522T495 513T520 496Q529 487 538 469T548 419Q548 397 542 378T521 342Q510 330 496 322T465 309L589 153H502Z"  />
<glyph unicode="&#xAF;" horiz-adv-x="500" d="M157 586H487L477 508H147L157 586Z"  />
<glyph unicode="&#xB0;" horiz-adv-x="502" d="M168 510Q168 545 180 572T209 619Q227 639 255 653T324 667Q345 667 371 661T422 632Q445 611 453 587T462 534Q462 508 454 477T419 419Q405 405 378 391T307 377Q270 377 245 388T203 417Q189 431 179 454T168 510ZM230 515Q230 498 236 483T253 456Q266 443 280 439T309 435Q349 435 373 459Q388 473 394 491T400 529Q400 542 396 558T378 588Q376 590 362 599T321 609Q301 609 284 602T256 584Q244 572 237 554T230 515Z"  />
<glyph unicode="&#xB1;" horiz-adv-x="500" d="M64 150H498V60H64V150ZM64 440H234V603H328V440H498V350H328V187H234V350H64V440Z"  />
<glyph unicode="&#xB2;" horiz-adv-x="371" d="M347 267H57L223 429Q239 444 253 458T281 490Q290 501 299 517T309 553Q309 578 292 593Q275 608 247 608Q227 608 215 602T195 589Q185 579 179 564T171 535H101Q105 559 116 585T146 631Q167 654 193 664T252 674Q289 674 313 664T352 638Q363 627 372 608T382 560Q382 534 374 514T350 472Q339 458 324 441T281 398L214 333H355L347 267Z"  />
<glyph unicode="&#xB3;" horiz-adv-x="372" d="M149 386Q150 375 154 363T167 342Q174 335 186 331T217 326Q234 326 247 330T268 343Q276 351 282 363T288 394Q288 402 285 414T267 436Q260 441 249 443T216 446H202L210 512H234Q247 512 261 514T287 525Q293 530 298 539T304 562Q304 584 289 596Q279 604 269 606T248 608Q238 608 226 606T202 592Q195 585 190 575T183 553H113Q117 579 128 601T156 639Q193 674 252 674Q280 674 305 666T348 641Q364 625 370 607T376 568Q376 551 372 536T356 506Q345 492 333 486T312 478Q320 476 329 471T347 454Q358 440 361 427T364 399Q364 374 357 350T328 303Q305 278 277 269T215 260Q191 260 164 266T114 295Q100 309 90 332T79 386H149Z"  />
<glyph unicode="&#xB4;" horiz-adv-x="500" d="M492 629L319 485L269 519L408 675L492 629Z"  />
<glyph unicode="&#xB5;" horiz-adv-x="524" d="M34 -230L114 421H212L190 240Q187 212 186 198T184 173Q184 156 189 137T210 100Q224 86 241 81T275 76Q301 76 319 84T350 104Q373 126 380 158T391 222L416 421H514L462 0H364L372 63Q370 57 359 39T329 6Q313 -5 297 -8T266 -12Q249 -12 232 -7T200 13Q189 24 181 41T169 73L132 -230H34Z"  />
<glyph unicode="&#xB6;" horiz-adv-x="618" d="M208 -96L259 317H252Q240 317 225 318T192 323T157 337T124 362Q101 386 93 414T84 472Q84 517 98 551T133 608Q152 628 174 639T222 657T275 665T332 667H629L620 591H554L469 -96H387L472 591H376L291 -96H208Z"  />
<glyph unicode="&#xB7;" horiz-adv-x="200" d="M63 329Q63 349 71 365T92 394Q107 408 122 413T151 418Q168 418 181 412T202 398Q221 377 221 351Q221 333 214 316T195 287Q182 273 167 268T135 262Q120 262 107 266T83 281Q63 299 63 329Z"  />
<glyph unicode="&#xB8;" horiz-adv-x="500" d="M330 -85L211 -219L151 -187L251 -53L330 -85Z"  />
<glyph unicode="&#xB9;" horiz-adv-x="370" d="M236 601H158L208 667H318L269 267H195L236 601Z"  />
<glyph unicode="&#xBA;" horiz-adv-x="369" d="M358 343L352 291H84L90 343H358ZM254 610Q232 610 217 603T191 586Q179 573 173 555T166 518Q166 494 174 481T187 462Q198 451 212 447T240 442Q262 442 276 449T301 466Q312 477 319 495T326 536Q326 547 323 561T306 590Q294 602 281 606T254 610ZM232 386Q214 386 185 392T132 423Q120 435 109 457T98 514Q98 548 110 575T142 623Q168 649 198 658T259 667Q282 667 307 661T356 632Q377 612 385 588T393 538Q393 501 381 475T351 430Q335 414 306 400T232 386Z"  />
<glyph unicode="&#xBB;" horiz-adv-x="504" d="M281 387L352 431L491 219L306 7L247 57L390 222L281 387ZM94 387L165 431L304 219L119 7L60 57L203 222L94 387Z"  />
<glyph unicode="&#xBC;" horiz-adv-x="802" d="M742 142H785L777 76H734L725 0H653L662 76H453L778 430L742 142ZM670 138L683 241L592 138H670ZM690 678L735 650L272 -11L227 17L690 678ZM236 601H158L208 667H316L267 267H195L236 601Z"  />
<glyph unicode="&#xBD;" horiz-adv-x="800" d="M744 0H454L620 162Q636 177 650 191T678 223Q687 234 696 250T706 286Q706 311 689 326Q672 341 644 341Q624 341 612 335T592 322Q582 312 576 297T568 268H498Q502 292 513 318T543 364Q564 387 590 397T649 407Q686 407 710 397T749 371Q760 360 769 341T779 293Q779 267 771 247T747 205Q736 191 721 174T678 131L611 66H752L744 0ZM630 678L675 650L212 -11L167 17L630 678ZM236 601H158L208 667H316L267 267H195L236 601Z"  />
<glyph unicode="&#xBE;" horiz-adv-x="802" d="M742 142H785L777 76H734L725 0H653L662 76H453L778 430L742 142ZM670 138L683 241L592 138H670ZM690 678L735 650L272 -11L227 17L690 678ZM149 386Q150 375 154 363T167 342Q174 335 186 331T217 326Q234 326 247 330T268 343Q276 351 282 363T288 394Q288 402 285 414T267 436Q260 441 249 443T216 446H202L210 512H234Q247 512 261 514T287 525Q293 530 298 539T304 563Q304 584 289 596Q279 604 269 606T248 608Q238 608 226 606T202 592Q195 585 190 575T183 553H113Q117 579 128 601T156 639Q193 674 252 674Q280 674 305 666T348 641Q364 625 370 607T376 568Q376 551 372 536T356 506Q345 492 333 486T312 478Q320 476 329 471T347 454Q358 440 361 427T364 399Q364 374 357 350T328 303Q305 278 277 269T215 260Q191 260 164 266T114 295Q100 309 90 332T79 386H149Z"  />
<glyph unicode="&#xBF;" horiz-adv-x="434" d="M211 383Q211 409 229 429Q237 437 249 443T278 449Q292 449 301 445T317 434Q333 419 333 394Q333 367 313 347Q295 329 267 329Q256 329 246 332T227 343Q211 358 211 383ZM382 -48V-53Q382 -65 381 -82T375 -119T361 -159T333 -197Q312 -217 279 -229T203 -242Q171 -242 143 -233T91 -200Q77 -186 65 -162T52 -101Q52 -71 63 -41T96 12Q107 24 131 40T202 73Q247 89 261 97T278 107Q296 122 296 146Q296 154 294 162T283 179Q274 187 264 189T248 191Q231 191 221 185T205 170Q200 162 197 148T192 123H94Q97 156 110 188T143 240Q159 256 185 268T255 281Q289 281 314 272T357 246Q380 225 387 199T395 149Q395 121 387 98T358 54Q344 40 322 26T276 4Q233 -11 211 -20T175 -42Q161 -56 157 -70T152 -95Q152 -109 156 -119T168 -136Q173 -141 183 -146T213 -152Q233 -152 246 -145T266 -129Q278 -113 278 -91T280 -48H382Z"  />
<glyph unicode="&#xC0;" horiz-adv-x="656" d="M272 846L365 906L486 767L433 727L272 846ZM465 257L393 483L263 257H465ZM494 161H209L116 0H4L423 706L652 0H544L494 161Z"  />
<glyph unicode="&#xC1;" horiz-adv-x="656" d="M358 767L513 906L592 846L401 727L358 767ZM465 257L393 483L263 257H465ZM494 161H209L116 0H4L423 706L652 0H544L494 161Z"  />
<glyph unicode="&#xC2;" horiz-adv-x="656" d="M320 730L258 786L439 920L588 786L518 730L429 812L320 730ZM465 257L393 483L263 257H465ZM494 161H209L116 0H4L423 706L652 0H544L494 161Z"  />
<glyph unicode="&#xC3;" horiz-adv-x="656" d="M610 817Q601 802 588 786T562 759Q543 743 525 738T486 733Q466 733 453 737T425 749L404 759Q390 766 378 770T355 775Q344 775 336 771T321 761Q317 758 311 751T299 733L245 774Q253 785 267 801T294 828Q327 855 368 855Q385 855 399 852T428 840L447 830Q463 822 474 817T497 811Q511 811 520 817T535 830Q544 841 550 850T558 863L610 817ZM465 257L393 483L263 257H465ZM494 161H209L116 0H4L423 706L652 0H544L494 161Z"  />
<glyph unicode="&#xC4;" horiz-adv-x="656" d="M268 788Q268 802 274 815T289 837Q297 845 309 851T339 857Q349 857 359 854T377 842Q384 835 388 825T393 801Q393 785 387 773T372 752Q351 733 323 733Q309 733 300 737T284 748Q268 763 268 788ZM463 788Q463 802 469 815T484 837Q492 845 504 851T534 857Q544 857 554 854T572 842Q579 835 583 825T588 801Q588 785 582 773T567 752Q546 733 518 733Q504 733 495 737T479 748Q463 763 463 788ZM465 257L393 483L263 257H465ZM494 161H209L116 0H4L423 706L652 0H544L494 161Z"  />
<glyph unicode="&#xC5;" horiz-adv-x="656" d="M494 161H209L116 0H4L423 706L652 0H544L494 161ZM465 257L393 483L263 257H465ZM333 815Q333 841 341 858T360 886Q374 902 394 911T440 920Q465 920 480 912T504 896Q519 882 524 865T529 832Q529 785 500 756Q470 726 422 726Q404 726 389 731T359 750Q347 762 340 778T333 815ZM388 819Q388 801 399 790Q409 780 426 780Q437 780 446 784T461 794Q468 801 471 810T474 828Q474 838 471 844T463 855Q458 860 452 863T436 866Q425 866 417 862T402 853Q396 847 392 838T388 819Z"  />
<glyph unicode="&#xC6;" horiz-adv-x="926" d="M496 159H213L120 0H10L412 667H707L737 571H472L523 412H781L811 316H553L621 96H886L916 0H546L496 159ZM467 255L399 472L269 255H467Z"  />
<glyph unicode="&#xC7;" horiz-adv-x="622" d="M425 -91L296 -224L236 -192L343 -53L425 -91ZM639 511Q615 535 590 549T541 572T494 582T456 585Q403 585 357 568T275 517Q238 482 215 426T191 301Q191 247 208 209T249 144Q278 113 316 97T406 81Q439 81 468 89T521 108T563 133T595 158L581 37Q520 4 476 -4T397 -13Q367 -13 339 -10T283 3T229 29T178 70Q134 114 112 170T89 301Q89 394 120 461T199 577Q254 631 320 655T463 679Q509 679 554 668T653 631L639 511Z"  />
<glyph unicode="&#xC8;" horiz-adv-x="500" d="M214 846L307 906L428 767L375 727L214 846ZM518 571H252L232 402H490L478 306H220L194 96H460L448 0H80L162 667H530L518 571Z"  />
<glyph unicode="&#xC9;" horiz-adv-x="500" d="M280 767L435 906L514 846L323 727L280 767ZM518 571H252L232 402H490L478 306H220L194 96H460L448 0H80L162 667H530L518 571Z"  />
<glyph unicode="&#xCA;" horiz-adv-x="500" d="M264 730L202 786L383 920L532 786L462 730L373 812L264 730ZM518 571H252L232 402H490L478 306H220L194 96H460L448 0H80L162 667H530L518 571Z"  />
<glyph unicode="&#xCB;" horiz-adv-x="500" d="M208 788Q208 802 214 815T229 837Q237 845 249 851T279 857Q289 857 299 854T317 842Q324 835 328 825T333 801Q333 785 327 773T312 752Q291 733 263 733Q249 733 240 737T224 748Q208 763 208 788ZM403 788Q403 802 409 815T424 837Q432 845 444 851T474 857Q484 857 494 854T512 842Q519 835 523 825T528 801Q528 785 522 773T507 752Q486 733 458 733Q444 733 435 737T419 748Q403 763 403 788ZM518 571H252L232 402H490L478 306H220L194 96H460L448 0H80L162 667H530L518 571Z"  />
<glyph unicode="&#xCC;" horiz-adv-x="262" d="M97 874L200 909L277 740L217 713L97 874ZM264 667L182 0H80L162 667H264Z"  />
<glyph unicode="&#xCD;" horiz-adv-x="262" d="M379 874L221 713L167 740L286 909L379 874ZM264 667L182 0H80L162 667H264Z"  />
<glyph unicode="&#xCE;" horiz-adv-x="262" d="M142 735L89 784L243 915L365 784L300 735L231 812L142 735ZM264 667L182 0H80L162 667H264Z"  />
<glyph unicode="&#xCF;" horiz-adv-x="262" d="M112 788Q112 800 117 812T131 834Q141 845 151 848T169 851Q188 851 201 836Q209 827 211 818T213 803Q213 777 195 757Q187 747 177 743T157 739Q148 739 140 743T126 753Q120 760 116 769T112 788ZM245 789Q245 801 250 813T264 835Q282 851 302 851Q310 851 318 848T334 836Q342 827 344 818T346 803Q346 777 328 757Q320 747 310 743T290 739Q281 739 273 743T259 753Q253 760 249 769T245 789ZM264 667L182 0H80L162 667H264Z"  />
<glyph unicode="&#xD0;" horiz-adv-x="646" d="M162 667H302Q330 667 362 665T429 654T496 629T558 584Q585 559 601 532T625 476T636 420T639 366Q639 333 635 299T621 232T592 167T545 106Q509 70 467 49T380 17T290 3T204 0H179H80L120 324H40L50 410H130L162 667ZM232 410H372L362 324H222L194 96H238Q263 96 294 98T359 108T423 133T481 181Q488 189 497 203T516 238T531 287T537 352Q537 407 522 447T482 512Q461 533 436 545T386 562T338 569T296 571H252L232 410Z"  />
<glyph unicode="&#xD1;" horiz-adv-x="746" d="M650 817Q641 802 628 786T602 759Q583 743 565 738T526 733Q506 733 493 737T465 749L444 759Q430 766 418 770T395 775Q384 775 376 771T361 761Q357 758 351 751T339 733L285 774Q293 785 307 801T334 828Q367 855 408 855Q425 855 439 852T468 840L487 830Q503 822 514 817T537 811Q551 811 560 817T575 830Q584 841 590 850T598 863L650 817ZM80 0L167 712L589 205L646 667H748L661 -41L239 466L182 0H80Z"  />
<glyph unicode="&#xD2;" horiz-adv-x="796" d="M364 846L457 906L578 767L525 727L364 846ZM410 81Q476 81 524 100T606 153Q644 191 665 246T687 360Q687 419 668 457T627 517Q599 546 557 565T458 585Q410 585 363 569T273 511Q238 477 214 426T190 307Q190 276 196 251T211 205T231 170T252 145Q287 107 327 94T410 81ZM478 679Q521 679 556 671T619 650T667 622T703 592Q731 564 748 533T774 472T786 415T789 366Q789 315 780 273T755 196T722 136T684 90Q651 57 616 37T545 5T475 -9T409 -13Q340 -13 283 5T178 73Q138 114 114 172T89 300Q89 380 118 452T198 574Q248 624 320 651T478 679Z"  />
<glyph unicode="&#xD3;" horiz-adv-x="796" d="M400 767L555 906L634 846L443 727L400 767ZM410 81Q476 81 524 100T606 153Q644 191 665 246T687 360Q687 419 668 457T627 517Q599 546 557 565T458 585Q410 585 363 569T273 511Q238 477 214 426T190 307Q190 276 196 251T211 205T231 170T252 145Q287 107 327 94T410 81ZM478 679Q521 679 556 671T619 650T667 622T703 592Q731 564 748 533T774 472T786 415T789 366Q789 315 780 273T755 196T722 136T684 90Q651 57 616 37T545 5T475 -9T409 -13Q340 -13 283 5T178 73Q138 114 114 172T89 300Q89 380 118 452T198 574Q248 624 320 651T478 679Z"  />
<glyph unicode="&#xD4;" horiz-adv-x="796" d="M389 730L327 786L508 920L657 786L587 730L498 812L389 730ZM410 81Q476 81 524 100T606 153Q644 191 665 246T687 360Q687 419 668 457T627 517Q599 546 557 565T458 585Q410 585 363 569T273 511Q238 477 214 426T190 307Q190 276 196 251T211 205T231 170T252 145Q287 107 327 94T410 81ZM478 679Q521 679 556 671T619 650T667 622T703 592Q731 564 748 533T774 472T786 415T789 366Q789 315 780 273T755 196T722 136T684 90Q651 57 616 37T545 5T475 -9T409 -13Q340 -13 283 5T178 73Q138 114 114 172T89 300Q89 380 118 452T198 574Q248 624 320 651T478 679Z"  />
<glyph unicode="&#xD5;" horiz-adv-x="796" d="M675 817Q666 802 653 786T627 759Q608 743 590 738T551 733Q531 733 518 737T490 749L469 759Q455 766 443 770T420 775Q409 775 401 771T386 761Q382 758 376 751T364 733L310 774Q318 785 332 801T359 828Q392 855 433 855Q450 855 464 852T493 840L512 830Q528 822 539 817T562 811Q576 811 585 817T600 830Q609 841 615 850T623 863L675 817ZM410 81Q476 81 524 100T606 153Q644 191 665 246T687 360Q687 419 668 457T627 517Q599 546 557 565T458 585Q410 585 363 569T273 511Q238 477 214 426T190 307Q190 276 196 251T211 205T231 170T252 145Q287 107 327 94T410 81ZM478 679Q521 679 556 671T619 650T667 622T703 592Q731 564 748 533T774 472T786 415T789 366Q789 315 780 273T755 196T722 136T684 90Q651 57 616 37T545 5T475 -9T409 -13Q340 -13 283 5T178 73Q138 114 114 172T89 300Q89 380 118 452T198 574Q248 624 320 651T478 679Z"  />
<glyph unicode="&#xD6;" horiz-adv-x="796" d="M328 788Q328 802 334 815T349 837Q357 845 369 851T399 857Q409 857 419 854T437 842Q444 835 448 825T453 801Q453 785 447 773T432 752Q411 733 383 733Q369 733 360 737T344 748Q328 763 328 788ZM523 788Q523 802 529 815T544 837Q552 845 564 851T594 857Q604 857 614 854T632 842Q639 835 643 825T648 801Q648 785 642 773T627 752Q606 733 578 733Q564 733 555 737T539 748Q523 763 523 788ZM410 81Q476 81 524 100T606 153Q644 191 665 246T687 360Q687 419 668 457T627 517Q599 546 557 565T458 585Q410 585 363 569T273 511Q238 477 214 426T190 307Q190 276 196 251T211 205T231 170T252 145Q287 107 327 94T410 81ZM478 679Q521 679 556 671T619 650T667 622T703 592Q731 564 748 533T774 472T786 415T789 366Q789 315 780 273T755 196T722 136T684 90Q651 57 616 37T545 5T475 -9T409 -13Q340 -13 283 5T178 73Q138 114 114 172T89 300Q89 380 118 452T198 574Q248 624 320 651T478 679Z"  />
<glyph unicode="&#xD7;" horiz-adv-x="500" d="M228 336L86 479L149 542L292 400L435 542L498 479L356 336L498 193L435 130L292 272L149 130L86 193L228 336Z"  />
<glyph unicode="&#xD8;" horiz-adv-x="796" d="M133 122Q110 160 96 203T82 300Q82 380 111 452T191 574Q212 594 239 613T301 646T377 670T466 679Q540 679 590 659T679 607L788 704L838 647L730 551Q759 506 770 463T782 367Q782 315 773 273T748 196T715 136T677 90Q644 57 609 37T538 5T468 -9T402 -13Q331 -13 280 4T181 64L76 -30L26 27L133 122ZM258 132Q293 104 328 93T407 81Q478 81 525 104T599 153Q637 191 658 246T680 364Q680 395 673 422T649 479L258 132ZM599 536Q573 556 537 570T451 585Q403 585 356 569T266 511Q224 469 204 417T183 310Q183 270 192 241T212 192L599 536Z"  />
<glyph unicode="&#xD9;" horiz-adv-x="656" d="M271 846L364 906L485 767L432 727L271 846ZM266 667L220 292Q218 277 216 258T213 216Q213 192 219 166T248 117Q262 103 284 92T342 81Q383 81 409 94T453 124Q469 140 478 156T493 191T502 227T507 265L556 667H658L605 238Q600 201 591 171T568 116T540 74T511 44Q485 22 441 5T334 -13Q278 -13 233 4T153 65Q137 85 123 118T109 202Q109 209 109 217T111 238T114 269T120 313L164 667H266Z"  />
<glyph unicode="&#xDA;" horiz-adv-x="656" d="M357 767L512 906L591 846L400 727L357 767ZM266 667L220 292Q218 277 216 258T213 216Q213 192 219 166T248 117Q262 103 284 92T342 81Q383 81 409 94T453 124Q469 140 478 156T493 191T502 227T507 265L556 667H658L605 238Q600 201 591 171T568 116T540 74T511 44Q485 22 441 5T334 -13Q278 -13 233 4T153 65Q137 85 123 118T109 202Q109 209 109 217T111 238T114 269T120 313L164 667H266Z"  />
<glyph unicode="&#xDB;" horiz-adv-x="656" d="M321 730L259 786L440 920L589 786L519 730L430 812L321 730ZM266 667L220 292Q218 277 216 258T213 216Q213 192 219 166T248 117Q262 103 284 92T342 81Q383 81 409 94T453 124Q469 140 478 156T493 191T502 227T507 265L556 667H658L605 238Q600 201 591 171T568 116T540 74T511 44Q485 22 441 5T334 -13Q278 -13 233 4T153 65Q137 85 123 118T109 202Q109 209 109 217T111 238T114 269T120 313L164 667H266Z"  />
<glyph unicode="&#xDC;" horiz-adv-x="656" d="M265 788Q265 802 271 815T286 837Q294 845 306 851T336 857Q346 857 356 854T374 842Q381 835 385 825T390 801Q390 785 384 773T369 752Q348 733 320 733Q306 733 297 737T281 748Q265 763 265 788ZM460 788Q460 802 466 815T481 837Q489 845 501 851T531 857Q541 857 551 854T569 842Q576 835 580 825T585 801Q585 785 579 773T564 752Q543 733 515 733Q501 733 492 737T476 748Q460 763 460 788ZM266 667L220 292Q218 277 216 258T213 216Q213 192 219 166T248 117Q262 103 284 92T342 81Q383 81 409 94T453 124Q469 140 478 156T493 191T502 227T507 265L556 667H658L605 238Q600 201 591 171T568 116T540 74T511 44Q485 22 441 5T334 -13Q278 -13 233 4T153 65Q137 85 123 118T109 202Q109 209 109 217T111 238T114 269T120 313L164 667H266Z"  />
<glyph unicode="&#xDD;" horiz-adv-x="540" d="M300 767L455 906L534 846L343 727L300 767ZM254 288L82 667H196L317 400L504 667H622L356 288L321 0H219L254 288Z"  />
<glyph unicode="&#xDE;" horiz-adv-x="482" d="M264 667L252 567H293Q304 567 323 566T364 560T410 545T454 515Q472 498 487 467T503 385Q503 328 485 292T446 235Q408 197 356 184T237 171H203L182 0H80L162 667H264ZM215 265H253Q289 265 320 271T371 296Q386 309 395 330T405 379Q405 405 396 422T374 450Q364 458 352 462T327 469T303 472T283 473H240L215 265Z"  />
<glyph unicode="&#xDF;" horiz-adv-x="559" d="M69 0L110 334H40L51 421H121L134 527Q138 563 151 605T198 682Q233 718 273 729T352 741Q385 741 420 732T486 693Q506 674 520 645T534 571Q534 538 526 515T509 478Q498 461 483 447T446 421Q463 412 480 399T510 372Q533 346 540 316T547 257Q547 203 530 157T476 73Q450 46 421 29T361 3T303 -10T250 -14L262 80Q300 80 336 93T398 130Q423 153 435 184T447 244Q447 271 438 293T413 330Q401 341 386 348T355 359T324 364T297 366L308 455H321Q336 455 362 460T411 489Q424 503 431 524T438 565Q438 586 431 602T412 630Q397 644 380 648T346 653Q301 653 272 625Q251 605 243 579T232 532L167 0H69Z"  />
<glyph unicode="&#xE0;" horiz-adv-x="532" d="M187 629L283 675L384 519L326 485L187 629ZM298 344Q268 344 248 334T214 311Q194 291 181 260T167 193Q167 165 176 143T200 105Q228 75 271 75Q304 75 326 86T363 112Q384 134 395 165T406 227Q406 253 398 276T373 316Q362 327 344 335T298 344ZM424 421H522L470 0H372L377 44Q366 33 352 21T321 2Q305 -5 285 -9T244 -13Q197 -13 169 2T124 33Q99 57 83 97T66 185Q66 233 83 284T139 373Q171 405 209 418T293 432Q314 432 333 428T370 414Q383 407 395 397T418 372L424 421Z"  />
<glyph unicode="&#xE1;" horiz-adv-x="532" d="M472 629L299 485L249 519L388 675L472 629ZM298 344Q268 344 248 334T214 311Q194 291 181 260T167 193Q167 165 176 143T200 105Q228 75 271 75Q304 75 326 86T363 112Q384 134 395 165T406 227Q406 253 398 276T373 316Q362 327 344 335T298 344ZM424 421H522L470 0H372L377 44Q366 33 352 21T321 2Q305 -5 285 -9T244 -13Q197 -13 169 2T124 33Q99 57 83 97T66 185Q66 233 83 284T139 373Q171 405 209 418T293 432Q314 432 333 428T370 414Q383 407 395 397T418 372L424 421Z"  />
<glyph unicode="&#xE2;" horiz-adv-x="532" d="M224 485L162 537L333 675L470 537L400 485L322 571L224 485ZM298 344Q268 344 248 334T214 311Q194 291 181 260T167 193Q167 165 176 143T200 105Q228 75 271 75Q304 75 326 86T363 112Q384 134 395 165T406 227Q406 253 398 276T373 316Q362 327 344 335T298 344ZM424 421H522L470 0H372L377 44Q366 33 352 21T321 2Q305 -5 285 -9T244 -13Q197 -13 169 2T124 33Q99 57 83 97T66 185Q66 233 83 284T139 373Q171 405 209 418T293 432Q314 432 333 428T370 414Q383 407 395 397T418 372L424 421Z"  />
<glyph unicode="&#xE3;" horiz-adv-x="532" d="M501 576Q493 562 482 548T456 521Q436 504 416 497T376 490Q356 490 342 495T316 508L296 520Q285 526 273 532T246 538Q234 538 226 534T210 521Q205 516 200 508T189 492L135 533Q145 547 157 561T184 587Q201 600 218 607T259 614Q283 614 299 607T326 594L341 584Q351 577 362 572T388 566Q402 566 410 572T427 587Q440 603 448 622L501 576ZM298 344Q268 344 248 334T214 311Q194 291 181 260T167 193Q167 165 176 143T200 105Q228 75 271 75Q304 75 326 86T363 112Q384 134 395 165T406 227Q406 253 398 276T373 316Q362 327 344 335T298 344ZM424 421H522L470 0H372L377 44Q366 33 352 21T321 2Q305 -5 285 -9T244 -13Q197 -13 169 2T124 33Q99 57 83 97T66 185Q66 233 83 284T139 373Q171 405 209 418T293 432Q314 432 333 428T370 414Q383 407 395 397T418 372L424 421Z"  />
<glyph unicode="&#xE4;" horiz-adv-x="532" d="M164 561Q164 573 169 585T185 609Q196 621 210 626T236 631Q257 631 274 616Q282 608 286 598T290 577Q290 552 270 529Q261 519 250 513T223 507Q198 507 180 523Q173 529 169 538T164 561ZM344 561Q344 573 349 585T365 609Q376 621 390 626T416 631Q437 631 454 616Q462 608 466 598T470 577Q470 552 450 529Q441 519 430 513T403 507Q378 507 360 523Q353 529 349 538T344 561ZM298 344Q268 344 248 334T214 311Q194 291 181 260T167 193Q167 165 176 143T200 105Q228 75 271 75Q304 75 326 86T363 112Q384 134 395 165T406 227Q406 253 398 276T373 316Q362 327 344 335T298 344ZM424 421H522L470 0H372L377 44Q366 33 352 21T321 2Q305 -5 285 -9T244 -13Q197 -13 169 2T124 33Q99 57 83 97T66 185Q66 233 83 284T139 373Q171 405 209 418T293 432Q314 432 333 428T370 414Q383 407 395 397T418 372L424 421Z"  />
<glyph unicode="&#xE5;" horiz-adv-x="532" d="M424 421H522L470 0H372L377 44Q366 33 352 21T321 2Q305 -5 285 -9T244 -13Q197 -13 169 2T124 33Q99 57 83 97T66 185Q66 233 83 284T139 373Q171 405 209 418T293 432Q314 432 333 428T370 414Q383 407 395 397T418 372L424 421ZM298 344Q268 344 248 334T214 311Q194 291 181 260T167 193Q167 165 176 143T200 105Q228 75 271 75Q304 75 326 86T363 112Q384 134 395 165T406 227Q406 253 398 276T373 316Q362 327 344 335T298 344ZM226 573Q226 599 234 616T252 643Q265 657 283 665T327 673Q350 673 365 666T391 650Q408 634 412 617T416 588Q416 559 406 541T387 513Q376 502 359 494T317 485Q296 485 279 492T250 511Q240 522 233 536T226 573ZM277 575Q277 558 288 547Q299 536 317 536Q326 536 335 539T350 548Q364 560 364 584Q364 595 360 602T351 613Q340 622 323 622Q310 622 302 618T289 608Q277 594 277 575Z"  />
<glyph unicode="&#xE6;" horiz-adv-x="762" d="M151 419Q180 425 210 428T270 432Q291 432 316 429T361 417Q372 412 386 402T414 374Q427 386 440 395T471 412Q497 423 519 427T566 432Q596 432 629 423T693 383Q717 357 731 320T745 236Q745 226 744 214T740 187H439Q439 164 447 141T470 102Q480 91 497 83T539 75Q576 75 606 94Q619 102 630 115T650 142L727 96Q711 70 691 50T649 17Q626 3 597 -5T531 -13Q510 -13 486 -9T438 6Q404 22 379 55Q365 37 348 25T313 4Q293 -5 267 -9T216 -13Q184 -13 156 -6T106 19Q86 33 71 59T56 124Q56 156 68 181T99 225Q119 245 152 258T234 271Q282 271 307 262T347 243Q349 250 349 256T349 267Q349 291 341 305T322 327Q308 338 289 341T252 344Q225 344 199 341T140 328L151 419ZM244 187Q227 187 206 182T169 164Q159 156 155 146T151 125Q151 102 175 86Q182 81 195 76T232 71Q238 71 259 73T299 87Q316 98 321 110T327 134Q327 147 321 156T305 172Q291 182 274 184T244 187ZM650 267Q648 283 641 299T625 325Q614 336 598 342T564 348Q524 348 493 323Q480 312 470 297T454 267H650Z"  />
<glyph unicode="&#xE7;" horiz-adv-x="422" d="M310 -85L191 -219L131 -187L231 -53L310 -85ZM426 290Q418 298 406 308T376 328Q360 336 346 340T314 344Q279 344 252 332T207 302Q167 260 167 198Q167 168 177 144T203 106Q219 91 242 83T290 75Q298 75 316 77T358 90Q363 93 377 101T406 126L393 16Q373 3 345 -5T268 -13Q226 -13 191 -1T125 41Q105 60 86 97T66 194Q66 226 72 252T89 300T111 338T136 367Q174 404 217 418T308 432Q353 432 384 422T439 396L426 290Z"  />
<glyph unicode="&#xE8;" horiz-adv-x="489" d="M192 629L288 675L389 519L331 485L192 629ZM377 267Q375 283 368 299T352 325Q341 336 325 342T291 348Q251 348 220 323Q207 312 197 297T181 267H377ZM454 96Q438 70 418 50T376 17Q358 6 329 -3T258 -13Q219 -13 186 -1T123 40Q98 65 82 102T66 190Q66 244 85 290T139 370Q170 400 207 416T293 432Q322 432 356 423T420 383Q444 358 458 320T472 236Q472 226 471 214T467 187H166Q166 164 174 141T197 102Q207 91 224 83T266 75Q303 75 333 94Q346 102 357 115T377 142L454 96Z"  />
<glyph unicode="&#xE9;" horiz-adv-x="489" d="M472 629L299 485L249 519L388 675L472 629ZM377 267Q375 283 368 299T352 325Q341 336 325 342T291 348Q251 348 220 323Q207 312 197 297T181 267H377ZM454 96Q438 70 418 50T376 17Q358 6 329 -3T258 -13Q219 -13 186 -1T123 40Q98 65 82 102T66 190Q66 244 85 290T139 370Q170 400 207 416T293 432Q322 432 356 423T420 383Q444 358 458 320T472 236Q472 226 471 214T467 187H166Q166 164 174 141T197 102Q207 91 224 83T266 75Q303 75 333 94Q346 102 357 115T377 142L454 96Z"  />
<glyph unicode="&#xEA;" horiz-adv-x="489" d="M210 485L148 537L319 675L456 537L386 485L308 571L210 485ZM377 267Q375 283 368 299T352 325Q341 336 325 342T291 348Q251 348 220 323Q207 312 197 297T181 267H377ZM454 96Q438 70 418 50T376 17Q358 6 329 -3T258 -13Q219 -13 186 -1T123 40Q98 65 82 102T66 190Q66 244 85 290T139 370Q170 400 207 416T293 432Q322 432 356 423T420 383Q444 358 458 320T472 236Q472 226 471 214T467 187H166Q166 164 174 141T197 102Q207 91 224 83T266 75Q303 75 333 94Q346 102 357 115T377 142L454 96Z"  />
<glyph unicode="&#xEB;" horiz-adv-x="489" d="M150 561Q150 573 155 585T171 609Q182 621 196 626T222 631Q243 631 260 616Q268 608 272 598T276 577Q276 552 256 529Q247 519 236 513T209 507Q184 507 166 523Q159 529 155 538T150 561ZM330 561Q330 573 335 585T351 609Q362 621 376 626T402 631Q423 631 440 616Q448 608 452 598T456 577Q456 552 436 529Q427 519 416 513T389 507Q364 507 346 523Q339 529 335 538T330 561ZM377 267Q375 283 368 299T352 325Q341 336 325 342T291 348Q251 348 220 323Q207 312 197 297T181 267H377ZM454 96Q438 70 418 50T376 17Q358 6 329 -3T258 -13Q219 -13 186 -1T123 40Q98 65 82 102T66 190Q66 244 85 290T139 370Q170 400 207 416T293 432Q322 432 356 423T420 383Q444 358 458 320T472 236Q472 226 471 214T467 187H166Q166 164 174 141T197 102Q207 91 224 83T266 75Q303 75 333 94Q346 102 357 115T377 142L454 96Z"  />
<glyph unicode="&#xEC;" horiz-adv-x="223" d="M76 653L180 676L232 493L169 475L76 653ZM213 421L161 0H63L115 421H213Z"  />
<glyph unicode="&#xED;" horiz-adv-x="223" d="M308 653L171 475L114 493L210 676L308 653ZM213 421L161 0H63L115 421H213Z"  />
<glyph unicode="&#xEE;" horiz-adv-x="223" d="M103 495L54 541L194 666L302 541L243 495L182 568L103 495ZM213 421L161 0H63L115 421H213Z"  />
<glyph unicode="&#xEF;" horiz-adv-x="233" d="M137 658Q157 658 169 641Q174 634 176 625T179 608Q179 596 175 583T164 558Q154 543 143 539T123 534Q113 534 105 538T92 547Q79 560 79 585Q79 601 85 617T102 643Q119 658 137 658ZM257 658Q277 658 289 641Q299 628 299 608Q299 597 296 584T284 558Q268 534 243 534Q233 534 225 538T212 547Q199 560 199 585Q199 601 205 617T222 643Q239 658 257 658ZM217 421L165 0H67L119 421H217Z"  />
<glyph unicode="&#xF0;" horiz-adv-x="527" d="M196 670Q234 668 265 660T320 643T362 623T391 604L524 646L541 588L438 556Q455 540 472 517T502 462Q517 424 521 387T525 317Q525 281 522 244T510 172T483 105T439 47Q401 10 362 -1T277 -13Q231 -13 193 -3T120 43Q65 100 65 188Q65 245 84 290T131 364Q140 373 154 385T189 407T237 425T297 432Q324 432 344 428T380 416T406 401T424 385Q423 392 420 408T408 443T383 484T340 524L155 465L138 524L279 569Q220 594 156 593L196 670ZM273 75Q309 75 334 87T375 117Q393 137 404 164T415 226Q415 264 403 286T377 319Q361 332 341 338T300 344Q274 344 249 335T205 305Q185 284 175 254T165 192Q165 160 174 138T197 103Q209 91 228 83T273 75Z"  />
<glyph unicode="&#xF1;" horiz-adv-x="485" d="M494 576Q486 562 475 548T449 521Q429 504 409 497T369 490Q349 490 335 495T309 508L289 520Q278 526 266 532T239 538Q227 538 219 534T203 521Q198 516 193 508T182 492L128 533Q138 547 150 561T177 587Q194 600 211 607T252 614Q276 614 292 607T319 594L334 584Q344 577 355 572T381 566Q395 566 403 572T420 587Q433 603 441 622L494 576ZM113 421H211L206 383Q216 395 226 402T248 416Q267 425 284 428T320 432Q358 432 382 421T420 396Q437 379 447 354T458 296Q458 284 456 266T449 207L423 0H325L352 217Q356 245 356 257T357 273Q357 286 354 301T338 327Q328 336 315 340T288 344Q262 344 247 336T225 321Q205 302 197 272T184 203L159 0H61L113 421Z"  />
<glyph unicode="&#xF2;" horiz-adv-x="534" d="M192 629L288 675L389 519L331 485L192 629ZM287 75Q313 75 336 84T380 115Q398 135 409 162T420 224Q420 241 414 265T387 312Q356 344 307 344Q273 344 250 334T212 309Q190 289 178 260T166 199Q166 175 174 152T197 112Q201 108 208 102T226 89T252 79T287 75ZM313 432Q346 432 386 422T463 376Q483 355 501 319T520 230Q520 212 518 191T507 146T485 98T447 52Q409 15 367 1T274 -13Q233 -13 196 -2T124 44Q101 68 84 104T66 191Q66 246 86 290T139 367Q207 432 313 432Z"  />
<glyph unicode="&#xF3;" horiz-adv-x="534" d="M487 629L314 485L264 519L403 675L487 629ZM287 75Q313 75 336 84T380 115Q398 135 409 162T420 224Q420 241 414 265T387 312Q356 344 307 344Q273 344 250 334T212 309Q190 289 178 260T166 199Q166 175 174 152T197 112Q201 108 208 102T226 89T252 79T287 75ZM313 432Q346 432 386 422T463 376Q483 355 501 319T520 230Q520 212 518 191T507 146T485 98T447 52Q409 15 367 1T274 -13Q233 -13 196 -2T124 44Q101 68 84 104T66 191Q66 246 86 290T139 367Q207 432 313 432Z"  />
<glyph unicode="&#xF4;" horiz-adv-x="534" d="M229 485L167 537L338 675L475 537L405 485L327 571L229 485ZM287 75Q313 75 336 84T380 115Q398 135 409 162T420 224Q420 241 414 265T387 312Q356 344 307 344Q273 344 250 334T212 309Q190 289 178 260T166 199Q166 175 174 152T197 112Q201 108 208 102T226 89T252 79T287 75ZM313 432Q346 432 386 422T463 376Q483 355 501 319T520 230Q520 212 518 191T507 146T485 98T447 52Q409 15 367 1T274 -13Q233 -13 196 -2T124 44Q101 68 84 104T66 191Q66 246 86 290T139 367Q207 432 313 432Z"  />
<glyph unicode="&#xF5;" horiz-adv-x="534" d="M506 576Q498 562 487 548T461 521Q441 504 421 497T381 490Q361 490 347 495T321 508L301 520Q290 526 278 532T251 538Q239 538 231 534T215 521Q210 516 205 508T194 492L140 533Q150 547 162 561T189 587Q206 600 223 607T264 614Q288 614 304 607T331 594L346 584Q356 577 367 572T393 566Q407 566 415 572T432 587Q445 603 453 622L506 576ZM287 75Q313 75 336 84T380 115Q398 135 409 162T420 224Q420 241 414 265T387 312Q356 344 307 344Q273 344 250 334T212 309Q190 289 178 260T166 199Q166 175 174 152T197 112Q201 108 208 102T226 89T252 79T287 75ZM313 432Q346 432 386 422T463 376Q483 355 501 319T520 230Q520 212 518 191T507 146T485 98T447 52Q409 15 367 1T274 -13Q233 -13 196 -2T124 44Q101 68 84 104T66 191Q66 246 86 290T139 367Q207 432 313 432Z"  />
<glyph unicode="&#xF6;" horiz-adv-x="534" d="M169 561Q169 573 174 585T190 609Q201 621 215 626T241 631Q262 631 279 616Q287 608 291 598T295 577Q295 552 275 529Q266 519 255 513T228 507Q203 507 185 523Q178 529 174 538T169 561ZM349 561Q349 573 354 585T370 609Q381 621 395 626T421 631Q442 631 459 616Q467 608 471 598T475 577Q475 552 455 529Q446 519 435 513T408 507Q383 507 365 523Q358 529 354 538T349 561ZM287 75Q313 75 336 84T380 115Q398 135 409 162T420 224Q420 241 414 265T387 312Q356 344 307 344Q273 344 250 334T212 309Q190 289 178 260T166 199Q166 175 174 152T197 112Q201 108 208 102T226 89T252 79T287 75ZM313 432Q346 432 386 422T463 376Q483 355 501 319T520 230Q520 212 518 191T507 146T485 98T447 52Q409 15 367 1T274 -13Q233 -13 196 -2T124 44Q101 68 84 104T66 191Q66 246 86 290T139 367Q207 432 313 432Z"  />
<glyph unicode="&#xF7;" horiz-adv-x="500" d="M75 381H509V291H75V381ZM232 159Q232 184 249 201T292 219Q317 219 334 202T352 159Q352 134 335 117T292 99Q267 99 250 116T232 159ZM232 513Q232 538 249 555T292 573Q317 573 334 556T352 513Q352 488 335 471T292 453Q267 453 250 470T232 513Z"  />
<glyph unicode="&#xF8;" horiz-adv-x="534" d="M96 80Q85 97 75 125T64 191Q64 236 81 283T137 367Q205 432 310 432Q348 432 381 423T447 389L529 461L567 415L487 343Q518 291 518 230Q518 212 516 191T505 146T483 98T445 52Q407 15 365 1T270 -13Q227 -13 197 -3T137 30L59 -39L15 7L96 80ZM211 97Q226 86 243 81T283 75Q310 75 334 84T378 115Q396 134 407 161T418 222Q418 251 409 274L211 97ZM372 323Q357 335 342 339T307 344Q248 344 210 309Q188 289 176 260T164 199Q164 183 166 171T174 147L372 323Z"  />
<glyph unicode="&#xF9;" horiz-adv-x="485" d="M162 629L258 675L359 519L301 485L162 629ZM213 421L186 202Q184 185 183 174T181 153Q181 130 187 117T201 95Q211 85 226 80T256 75Q273 75 289 81T317 97Q334 113 339 135T347 180L377 421H475L445 177Q443 161 440 142T431 104T415 67T388 32Q371 15 339 1T255 -13Q207 -13 174 0T121 33Q82 74 82 135Q82 146 83 159T87 192L115 421H213Z"  />
<glyph unicode="&#xFA;" horiz-adv-x="485" d="M472 629L299 485L249 519L388 675L472 629ZM213 421L186 202Q184 185 183 174T181 153Q181 130 187 117T201 95Q211 85 226 80T256 75Q273 75 289 81T317 97Q334 113 339 135T347 180L377 421H475L445 177Q443 161 440 142T431 104T415 67T388 32Q371 15 339 1T255 -13Q207 -13 174 0T121 33Q82 74 82 135Q82 146 83 159T87 192L115 421H213Z"  />
<glyph unicode="&#xFB;" horiz-adv-x="485" d="M216 485L154 537L325 675L462 537L392 485L314 571L216 485ZM213 421L186 202Q184 185 183 174T181 153Q181 130 187 117T201 95Q211 85 226 80T256 75Q273 75 289 81T317 97Q334 113 339 135T347 180L377 421H475L445 177Q443 161 440 142T431 104T415 67T388 32Q371 15 339 1T255 -13Q207 -13 174 0T121 33Q82 74 82 135Q82 146 83 159T87 192L115 421H213Z"  />
<glyph unicode="&#xFC;" horiz-adv-x="485" d="M156 561Q156 573 161 585T177 609Q188 621 202 626T228 631Q249 631 266 616Q274 608 278 598T282 577Q282 552 262 529Q253 519 242 513T215 507Q190 507 172 523Q165 529 161 538T156 561ZM336 561Q336 573 341 585T357 609Q368 621 382 626T408 631Q429 631 446 616Q454 608 458 598T462 577Q462 552 442 529Q433 519 422 513T395 507Q370 507 352 523Q345 529 341 538T336 561ZM213 421L186 202Q184 185 183 174T181 153Q181 130 187 117T201 95Q211 85 226 80T256 75Q273 75 289 81T317 97Q334 113 339 135T347 180L377 421H475L445 177Q443 161 440 142T431 104T415 67T388 32Q371 15 339 1T255 -13Q207 -13 174 0T121 33Q82 74 82 135Q82 146 83 159T87 192L115 421H213Z"  />
<glyph unicode="&#xFD;" horiz-adv-x="482" d="M483 629L310 485L260 519L399 675L483 629ZM203 78L58 421H174L269 184L416 421H528L113 -229H3L203 78Z"  />
<glyph unicode="&#xFE;" horiz-adv-x="532" d="M132 -229H34L153 729H251L206 375Q217 389 229 398T256 415Q291 432 331 432Q371 432 406 417T465 378Q488 354 503 318T518 235Q518 180 498 130T447 47Q420 18 386 2T307 -14Q281 -14 257 -9T212 9Q198 17 187 27T166 49L132 -229ZM308 344Q285 344 265 338T224 313Q202 292 190 259T178 191Q178 173 183 150T206 108Q220 94 240 85T286 75Q312 75 332 83T369 109Q389 129 403 160T417 227Q417 253 409 275T387 312Q371 329 352 336T308 344Z"  />
<glyph unicode="&#xFF;" horiz-adv-x="482" d="M155 561Q155 573 160 585T176 609Q187 621 201 626T227 631Q248 631 265 616Q273 608 277 598T281 577Q281 552 261 529Q252 519 241 513T214 507Q189 507 171 523Q164 529 160 538T155 561ZM335 561Q335 573 340 585T356 609Q367 621 381 626T407 631Q428 631 445 616Q453 608 457 598T461 577Q461 552 441 529Q432 519 421 513T394 507Q369 507 351 523Q344 529 340 538T335 561ZM203 78L58 421H174L269 184L416 421H528L113 -229H3L203 78Z"  />
<glyph unicode="&#x152;" horiz-adv-x="1061" d="M1079 571H813L794 412H1052L1040 316H782L755 96H1021L1009 0H747H641L651 81Q620 50 593 34T557 14Q522 -2 489 -7T416 -13Q386 -13 355 -10T294 2T235 28T178 73Q138 114 114 172T89 300Q89 380 118 452T198 574Q249 624 320 651T474 679Q512 679 548 671T620 644Q651 628 672 609T710 564L723 667H1091L1079 571ZM413 81Q449 81 478 87T531 104T573 127T605 153Q643 191 664 246T686 360Q686 419 667 457T626 517Q598 546 555 565T457 585Q394 585 349 563T275 511Q240 477 216 426T192 307Q192 276 198 251T213 205T233 170T254 145Q289 107 329 94T413 81Z"  />
<glyph unicode="&#x153;" horiz-adv-x="845" d="M810 96Q794 70 774 50T732 17Q701 -1 670 -7T612 -13Q588 -13 563 -8T511 12Q496 21 481 35T453 70Q432 43 411 30T382 11Q366 3 340 -5T272 -13Q226 -13 190 0T124 44Q101 67 84 103T66 191Q66 245 85 291T137 367Q147 377 163 388T201 409T250 425T313 432Q339 432 365 427T416 410Q442 397 457 382T482 354Q508 388 548 410Q574 424 597 428T649 432Q679 432 712 424T776 383Q800 357 814 320T828 236Q828 226 827 214T823 187H522Q522 164 530 141T553 102Q563 91 580 83T622 75Q659 75 689 94Q702 102 713 115T733 142L810 96ZM287 75Q343 75 380 115Q394 131 407 157T420 224Q420 241 414 265T387 312Q355 344 305 344Q250 344 213 309Q191 289 179 260T167 199Q167 175 175 152T198 112Q202 108 209 102T227 89T253 79T287 75ZM733 267Q731 287 723 302T703 329Q694 337 681 342T647 348Q625 348 607 341T576 323Q563 312 553 297T537 267H733Z"  />
<glyph unicode="&#x160;" horiz-adv-x="516" d="M470 920L531 864L350 730L201 864L272 920L361 838L470 920ZM432 519Q424 549 402 566Q388 577 370 581T336 585Q307 585 289 577T260 559Q248 548 240 533T232 499Q232 482 238 470T256 448Q272 434 287 428T321 413L375 389Q407 375 427 359T459 328Q479 303 486 277T494 219Q494 161 477 121T433 54Q413 33 391 20T346 0T301 -10T259 -13Q220 -13 187 -3T125 34Q100 58 83 97T63 184L166 206Q165 186 170 160T189 116Q201 100 221 91T274 81Q301 81 320 89T353 109Q373 126 382 153T391 207Q391 227 384 242T365 270Q351 285 333 294T297 312L246 335Q228 343 206 356T167 388Q151 406 141 431T130 486Q130 489 131 502T137 533T152 572T183 615Q210 644 249 661T342 679Q367 679 397 674T457 648Q484 630 498 609T520 567L432 519Z"  />
<glyph unicode="&#x161;" horiz-adv-x="364" d="M349 675L411 623L241 485L103 623L173 675L250 589L349 675ZM278 310Q271 326 258 336Q250 342 243 344T228 346Q220 346 211 344T194 334Q191 331 188 326T185 312Q185 297 197 288Q202 283 210 280T238 266L266 252Q292 239 304 229T319 216Q329 205 340 185T351 129Q351 91 338 67T309 27Q289 8 260 -2T191 -13Q172 -13 146 -8T97 14Q95 15 89 20T75 35T59 59T45 91L130 129Q137 103 153 88Q170 73 194 73Q218 73 233 86Q249 99 249 123Q249 144 235 158Q227 166 217 171T195 182L168 196Q158 201 144 209T120 228Q91 255 91 301Q91 330 101 353T129 394Q152 417 179 424T233 432Q253 432 271 428T306 412Q321 402 333 388T354 358L278 310Z"  />
<glyph unicode="&#x178;" horiz-adv-x="540" d="M198 788Q198 802 204 815T219 837Q227 845 239 851T269 857Q279 857 289 854T307 842Q314 835 318 825T323 801Q323 785 317 773T302 752Q281 733 253 733Q239 733 230 737T214 748Q198 763 198 788ZM393 788Q393 802 399 815T414 837Q422 845 434 851T464 857Q474 857 484 854T502 842Q509 835 513 825T518 801Q518 785 512 773T497 752Q476 733 448 733Q434 733 425 737T409 748Q393 763 393 788ZM254 288L82 667H196L317 400L504 667H622L356 288L321 0H219L254 288Z"  />
<glyph unicode="&#x17D;" horiz-adv-x="554" d="M500 920L561 864L380 730L231 864L302 920L391 838L500 920ZM208 96H528L516 0H30L428 571H154L166 667H606L208 96Z"  />
<glyph unicode="&#x17E;" horiz-adv-x="480" d="M428 675L490 623L320 485L182 623L252 675L329 589L428 675ZM212 90H462L451 0H8L322 331H107L118 421H524L212 90Z"  />
<glyph unicode="&#x192;" horiz-adv-x="568" d="M573 638Q566 641 555 644T530 648Q497 648 477 627Q465 615 458 596T444 553L411 421H523L503 343H391L321 65Q315 40 307 14T289 -37T266 -84T234 -123Q207 -149 165 -163T71 -177Q64 -177 58 -177T44 -176L67 -83H73Q95 -83 120 -79T165 -56Q183 -39 195 -9T218 63L289 343H204L224 421H309L345 565Q353 595 368 632T413 697Q439 721 469 730T531 740Q554 740 571 737T598 731L573 638Z"  />
<glyph unicode="&#x2C6;" horiz-adv-x="500" d="M224 485L162 537L333 675L470 537L400 485L322 571L224 485Z"  />
<glyph unicode="&#x2DC;" horiz-adv-x="500" d="M501 576Q493 562 482 548T456 521Q436 504 416 497T376 490Q356 490 342 495T316 508L296 520Q285 526 273 532T246 538Q234 538 226 534T210 521Q205 516 200 508T189 492L135 533Q145 547 157 561T184 587Q201 600 218 607T259 614Q283 614 299 607T326 594L341 584Q351 577 362 572T388 566Q402 566 410 572T427 587Q440 603 448 622L501 576Z"  />
<glyph unicode="&#x2013;" horiz-adv-x="620" d="M102 258H582L571 168H91L102 258Z"  />
<glyph unicode="&#x2014;" horiz-adv-x="840" d="M102 258H802L791 168H91L102 258Z"  />
<glyph unicode="&#x2018;" horiz-adv-x="290" d="M189 415L105 449L259 696L322 669L189 415Z"  />
<glyph unicode="&#x2019;" horiz-adv-x="340" d="M237 701L321 667L167 420L104 447L237 701Z"  />
<glyph unicode="&#x201A;" horiz-adv-x="340" d="M167 125L251 91L97 -156L34 -129L167 125Z"  />
<glyph unicode="&#x201C;" horiz-adv-x="462" d="M187 415L105 449L258 696L320 669L187 415ZM361 415L279 449L432 696L494 669L361 415Z"  />
<glyph unicode="&#x201D;" horiz-adv-x="512" d="M411 701L493 667L340 420L278 447L411 701ZM237 701L319 667L166 420L104 447L237 701Z"  />
<glyph unicode="&#x201E;" horiz-adv-x="512" d="M341 125L423 91L270 -156L208 -129L341 125ZM167 125L249 91L96 -156L34 -129L167 125Z"  />
<glyph unicode="&#x2020;" horiz-adv-x="567" d="M332 729H430L403 516H541L530 422H392L318 -177H220L294 422H156L167 516H305L332 729Z"  />
<glyph unicode="&#x2021;" horiz-adv-x="566" d="M331 729H429L402 516H540L529 422H391L360 171H498L486 77H348L317 -177H219L250 77H112L124 171H262L293 422H155L166 516H304L331 729Z"  />
<glyph unicode="&#x2022;" horiz-adv-x="1000" d="M401 322Q401 348 412 376T443 427Q466 452 496 466T559 480Q587 480 609 470T647 445Q662 430 672 408T683 357Q683 328 671 300T637 248Q615 226 586 213T524 200Q493 200 471 210T435 236Q420 252 411 273T401 322Z"  />
<glyph unicode="&#x2026;" horiz-adv-x="801" d="M606 42Q606 68 624 88Q632 96 644 102T673 108Q687 108 696 104T712 93Q728 78 728 53Q728 26 708 6Q690 -12 662 -12Q651 -12 641 -9T622 2Q606 17 606 42ZM346 42Q346 68 364 88Q372 96 384 102T413 108Q427 108 436 104T452 93Q468 78 468 53Q468 26 448 6Q430 -12 402 -12Q391 -12 381 -9T362 2Q346 17 346 42ZM86 42Q86 68 104 88Q112 96 124 102T153 108Q167 108 176 104T192 93Q208 78 208 53Q208 26 188 6Q170 -12 142 -12Q131 -12 121 -9T102 2Q86 17 86 42Z"  />
<glyph unicode="&#x2030;" horiz-adv-x="1203" d="M656 678L700 651L238 -11L194 18L656 678ZM645 307Q690 307 716 292T757 263Q774 246 785 220T797 161Q797 129 785 97T747 38Q721 12 692 3T628 -7Q598 -7 569 1T514 35Q492 57 482 84T472 139Q472 170 485 201T522 257Q570 307 645 307ZM630 65Q653 65 668 73T692 90Q705 103 712 122T719 159Q719 174 713 189T695 216Q674 235 642 235Q602 235 578 209Q566 197 559 180T552 142Q552 108 574 86Q583 77 596 71T630 65ZM268 673Q314 673 340 658T381 629Q398 612 409 586T421 527Q421 495 409 464T371 406Q344 379 313 369T249 359Q222 359 193 367T138 401Q116 423 106 450T96 505Q96 539 110 570T145 623Q164 643 193 658T268 673ZM254 431Q277 431 292 439T316 456Q329 469 336 488T343 525Q343 540 337 555T319 582Q298 601 266 601Q226 601 202 575Q190 563 183 546T176 508Q176 474 198 452Q207 443 220 437T254 431ZM1036 307Q1081 307 1107 292T1148 263Q1165 246 1176 220T1188 161Q1188 129 1176 97T1138 38Q1112 12 1083 3T1019 -7Q989 -7 960 1T905 35Q883 57 873 84T863 139Q863 170 876 201T913 257Q961 307 1036 307ZM1021 65Q1044 65 1059 73T1083 90Q1096 103 1103 122T1110 159Q1110 174 1104 189T1086 216Q1065 235 1033 235Q993 235 969 209Q957 197 950 180T943 142Q943 108 965 86Q974 77 987 71T1021 65Z"  />
<glyph unicode="&#x2039;" horiz-adv-x="326" d="M273 50L202 7L67 219L260 435L319 384L167 215L273 50Z"  />
<glyph unicode="&#x203A;" horiz-adv-x="317" d="M94 387L165 431L304 219L119 7L60 57L203 222L94 387Z"  />
<glyph unicode="&#x20AC;" horiz-adv-x="568" d="M547 552Q533 562 504 573T421 585Q409 585 381 582T319 566T254 524T204 446H493L454 376H180Q175 359 173 341T169 302H416L377 232H174Q180 166 227 124T357 81Q369 81 387 82T427 90T476 107T529 138L516 29Q465 4 418 -4T343 -13Q272 -13 217 9T128 69Q103 97 85 139T66 232H-2L37 302H67Q68 322 70 340T78 376H16L55 446H98Q112 496 137 532T190 592Q230 627 291 653T441 679Q498 679 535 669T601 641L547 552Z"  />
<glyph unicode="&#x2122;" horiz-adv-x="710" d="M295 287L428 701L520 421L681 701L711 287H640L631 493L502 280L427 493L366 287H295ZM228 601L189 287H119L158 601H74L82 667H320L312 601H228Z"  />


</font>
</defs>
</svg>
